  0
SECTION
  2
HEADER
  9
$ACADVER
  1
AC1014
  9
$HANDSEED
  5
FFFF
  9
$MEASUREMENT
 70
     1
  0
ENDSEC
  0
SECTION
  2
TABLES
  0
TABLE
  2
VPORT
  5
8
330
0
100
AcDbSymbolTable
 70
     4
  0
VPORT
  5
2E
330
8
100
AcDbSymbolTableRecord
100
AcDbViewportTableRecord
  2
*ACTIVE
 70
     0
 10
0.0
 20
0.0
 11
1.0
 21
1.0
 12
210.0
 22
148.5
 13
0.0
 23
0.0
 14
10.0
 24
10.0
 15
10.0
 25
10.0
 16
0.0
 26
0.0
 36
1.0
 17
0.0
 27
0.0
 37
0.0
 40
341.0
 41
1.24
 42
50.0
 43
0.0
 44
0.0
 50
0.0
 51
0.0
 71
     0
 72
   100
 73
     1
 74
     3
 75
     0
 76
     0
 77
     0
 78
     0
  0
ENDTAB
  0
TABLE
  2
LTYPE
  5
5
330
0
100
AcDbSymbolTable
 70
     1
  0
LTYPE
  5
14
330
5
100
AcDbSymbolTableRecord
100
AcDbLinetypeTableRecord
  2
BYBLOCK
 70
     0
  3

 72
    65
 73
     0
 40
0.0
  0
LTYPE
  5
15
330
5
100
AcDbSymbolTableRecord
100
AcDbLinetypeTableRecord
  2
BYLAYER
 70
     0
  3

 72
    65
 73
     0
 40
0.0
  0
LTYPE
  5
16
330
5
100
AcDbSymbolTableRecord
100
AcDbLinetypeTableRecord
  2
CONTINUOUS
 70
     0
  3
Solid line
 72
    65
 73
     0
 40
0.0
  0
ENDTAB
  0
TABLE
  2
LAYER
  5
2
100
AcDbSymbolTable
 70
4
  0
LAYER
  5
50
100
AcDbSymbolTableRecord
100
AcDbLayerTableRecord
  2
0
 70
0
  6
CONTINUOUS
  0
LAYER
  5
51
100
AcDbSymbolTableRecord
100
AcDbLayerTableRecord
  2
Layer_1
 70
0
  6
CONTINUOUS
  0
LAYER
  5
52
100
AcDbSymbolTableRecord
100
AcDbLayerTableRecord
  2
text
 70
0
  6
CONTINUOUS
  0
LAYER
  5
53
100
AcDbSymbolTableRecord
100
AcDbLayerTableRecord
  2
logo
 70
0
  6
CONTINUOUS
  0
ENDTAB
  0
TABLE
  2
STYLE
  5
3
330
0
100
AcDbSymbolTable
 70
     1
  0
STYLE
  5
11
330
3
100
AcDbSymbolTableRecord
100
AcDbTextStyleTableRecord
  2
STANDARD
 70
     0
 40
0.0
 41
1.0
 50
0.0
 71
     0
 42
2.5
  3
txt
  4

  0
ENDTAB
  0
TABLE
  2
VIEW
  5
6
330
0
100
AcDbSymbolTable
 70
     0
  0
ENDTAB
  0
TABLE
  2
UCS
  5
7
330
0
100
AcDbSymbolTable
 70
     0
  0
ENDTAB
  0
TABLE
  2
APPID
  5
9
330
0
100
AcDbSymbolTable
 70
     2
  0
APPID
  5
12
330
9
100
AcDbSymbolTableRecord
100
AcDbRegAppTableRecord
  2
ACAD
 70
     0
  0
ENDTAB
  0
TABLE
  2
DIMSTYLE
  5
A
330
0
100
AcDbSymbolTable
 70
     1
  0
DIMSTYLE
105
27
330
A
100
AcDbSymbolTableRecord
100
AcDbDimStyleTableRecord
  2
ISO-25
 70
     0
  3

  4

  5

  6

  7

 40
1.0
 41
2.5
 42
0.625
 43
3.75
 44
1.25
 45
0.0
 46
0.0
 47
0.0
 48
0.0
140
2.5
141
2.5
142
0.0
143
0.03937007874016
144
1.0
145
0.0
146
1.0
147
0.625
 71
     0
 72
     0
 73
     0
 74
     0
 75
     0
 76
     0
 77
     1
 78
     8
170
     0
171
     3
172
     1
173
     0
174
     0
175
     0
176
     0
177
     0
178
     0
270
     2
271
     2
272
     2
273
     2
274
     3
340
11
275
     0
280
     0
281
     0
282
     0
283
     0
284
     8
285
     0
286
     0
287
     3
288
     0
  0
ENDTAB
  0
TABLE
  2
BLOCK_RECORD
  5
1
330
0
100
AcDbSymbolTable
 70
     1
  0
BLOCK_RECORD
  5
1F
330
1
100
AcDbSymbolTableRecord
100
AcDbBlockTableRecord
  2
*MODEL_SPACE
  0
BLOCK_RECORD
  5
1B
330
1
100
AcDbSymbolTableRecord
100
AcDbBlockTableRecord
  2
*PAPER_SPACE
  0
ENDTAB
  0
ENDSEC
  0
SECTION
  2
BLOCKS
  0
BLOCK
  5
20
330
1F
100
AcDbEntity
  8
0
100
AcDbBlockBegin
  2
*MODEL_SPACE
 70
     0
 10
0.0
 20
0.0
 30
0.0
  3
*MODEL_SPACE
  1

  0
ENDBLK
  5
21
330
1F
100
AcDbEntity
  8
0
100
AcDbBlockEnd
  0
BLOCK
  5
1C
330
1B
100
AcDbEntity
 67
     1
  8
0
100
AcDbBlockBegin
  2
*PAPER_SPACE
  1

  0
ENDBLK
  5
1D
330
1B
100
AcDbEntity
 67
     1
  8
0
100
AcDbBlockEnd
  0
ENDSEC
  0
SECTION
  2
ENTITIES
  0
LINE
  5
100
100
AcDbEntity
  8
Layer_1
 62
7
100
AcDbLine
 10
0.049981
 20
0.049849
 30
0.0
 11
40.590090
 21
0.049849
 31
0.0
  0
LINE
  5
101
100
AcDbEntity
  8
Layer_1
 62
7
100
AcDbLine
 10
0.049981
 20
128.450048
 30
0.0
 11
0.049981
 21
0.049849
 31
0.0
  0
LINE
  5
102
100
AcDbEntity
  8
Layer_1
 62
7
100
AcDbLine
 10
40.590090
 20
0.049849
 30
0.0
 11
40.590090
 21
128.450048
 31
0.0
  0
LINE
  5
103
100
AcDbEntity
  8
Layer_1
 62
7
100
AcDbLine
 10
40.590090
 20
128.450048
 30
0.0
 11
0.049981
 21
128.450048
 31
0.0
  0
SPLINE
  5
104
100
AcDbEntity
  8
Layer_1
 62
7
100
AcDbSpline
 70
8
 71
3
 72
8
 73
4
 74
0
 40
0
 40
0
 40
0
 40
0
 40
1
 40
1
 40
1
 40
1
 10
3.042564
 20
4.596334
 30
0.0
 10
2.189239
 20
4.595469
 30
0.0
 10
1.497939
 20
3.902303
 30
0.0
 10
1.497939
 20
3.047538
 30
0.0
  0
SPLINE
  5
105
100
AcDbEntity
  8
Layer_1
 62
7
100
AcDbSpline
 70
8
 71
3
 72
8
 73
4
 74
0
 40
0
 40
0
 40
0
 40
0
 40
1
 40
1
 40
1
 40
1
 10
1.497939
 20
3.047538
 30
0.0
 10
1.497939
 20
2.192773
 30
0.0
 10
2.189239
 20
1.499606
 30
0.0
 10
3.042564
 20
1.498741
 30
0.0
  0
LINE
  5
106
100
AcDbEntity
  8
Layer_1
 62
7
100
AcDbLine
 10
3.042454
 20
1.498641
 30
0.0
 11
6.035190
 21
1.498641
 31
0.0
  0
SPLINE
  5
107
100
AcDbEntity
  8
Layer_1
 62
7
100
AcDbSpline
 70
8
 71
3
 72
8
 73
4
 74
0
 40
0
 40
0
 40
0
 40
0
 40
1
 40
1
 40
1
 40
1
 10
6.035192
 20
1.498741
 30
0.0
 10
6.888518
 20
1.499606
 30
0.0
 10
7.579818
 20
2.192773
 30
0.0
 10
7.579818
 20
3.047538
 30
0.0
  0
SPLINE
  5
108
100
AcDbEntity
  8
Layer_1
 62
7
100
AcDbSpline
 70
8
 71
3
 72
8
 73
4
 74
0
 40
0
 40
0
 40
0
 40
0
 40
1
 40
1
 40
1
 40
1
 10
7.579818
 20
3.047538
 30
0.0
 10
7.579818
 20
3.902303
 30
0.0
 10
6.888518
 20
4.595469
 30
0.0
 10
6.035192
 20
4.596334
 30
0.0
  0
LINE
  5
109
100
AcDbEntity
  8
Layer_1
 62
7
100
AcDbLine
 10
3.042454
 20
4.596358
 30
0.0
 11
6.035190
 21
4.596358
 31
0.0
  0
SPLINE
  5
10a
100
AcDbEntity
  8
Layer_1
 62
7
100
AcDbSpline
 70
8
 71
3
 72
8
 73
4
 74
0
 40
0
 40
0
 40
0
 40
0
 40
1
 40
1
 40
1
 40
1
 10
10.494206
 20
20.284152
 30
0.0
 10
10.494206
 20
21.408665
 30
0.0
 10
9.895295
 20
22.447759
 30
0.0
 10
8.923077
 20
23.010016
 30
0.0
  0
SPLINE
  5
10b
100
AcDbEntity
  8
Layer_1
 62
7
100
AcDbSpline
 70
8
 71
3
 72
8
 73
4
 74
0
 40
0
 40
0
 40
0
 40
0
 40
1
 40
1
 40
1
 40
1
 10
8.923077
 20
23.010016
 30
0.0
 10
7.950859
 20
23.572272
 30
0.0
 10
6.753037
 20
23.572272
 30
0.0
 10
5.780818
 20
23.010016
 30
0.0
  0
SPLINE
  5
10c
100
AcDbEntity
  8
Layer_1
 62
7
100
AcDbSpline
 70
8
 71
3
 72
8
 73
4
 74
0
 40
0
 40
0
 40
0
 40
0
 40
1
 40
1
 40
1
 40
1
 10
5.780818
 20
23.010016
 30
0.0
 10
4.808600
 20
22.447759
 30
0.0
 10
4.209689
 20
21.408665
 30
0.0
 10
4.209689
 20
20.284152
 30
0.0
  0
SPLINE
  5
10d
100
AcDbEntity
  8
Layer_1
 62
7
100
AcDbSpline
 70
8
 71
3
 72
8
 73
4
 74
0
 40
0
 40
0
 40
0
 40
0
 40
1
 40
1
 40
1
 40
1
 10
4.209689
 20
20.284152
 30
0.0
 10
4.209689
 20
19.159638
 30
0.0
 10
4.808600
 20
18.120545
 30
0.0
 10
5.780818
 20
17.558288
 30
0.0
  0
SPLINE
  5
10e
100
AcDbEntity
  8
Layer_1
 62
7
100
AcDbSpline
 70
8
 71
3
 72
8
 73
4
 74
0
 40
0
 40
0
 40
0
 40
0
 40
1
 40
1
 40
1
 40
1
 10
5.780818
 20
17.558288
 30
0.0
 10
6.753037
 20
16.996031
 30
0.0
 10
7.950859
 20
16.996031
 30
0.0
 10
8.923077
 20
17.558288
 30
0.0
  0
SPLINE
  5
10f
100
AcDbEntity
  8
Layer_1
 62
7
100
AcDbSpline
 70
8
 71
3
 72
8
 73
4
 74
0
 40
0
 40
0
 40
0
 40
0
 40
1
 40
1
 40
1
 40
1
 10
8.923077
 20
17.558288
 30
0.0
 10
9.895295
 20
18.120545
 30
0.0
 10
10.494206
 20
19.159638
 30
0.0
 10
10.494206
 20
20.284152
 30
0.0
  0
LINE
  5
110
100
AcDbEntity
  8
Layer_1
 62
7
100
AcDbLine
 10
10.494206
 20
20.284152
 30
0.0
 11
10.494206
 21
20.284152
 31
0.0
  0
SPLINE
  5
111
100
AcDbEntity
  8
Layer_1
 62
7
100
AcDbSpline
 70
8
 71
3
 72
8
 73
4
 74
0
 40
0
 40
0
 40
0
 40
0
 40
1
 40
1
 40
1
 40
1
 10
34.604797
 20
4.596334
 30
0.0
 10
33.751471
 20
4.595469
 30
0.0
 10
33.060171
 20
3.902303
 30
0.0
 10
33.060171
 20
3.047538
 30
0.0
  0
SPLINE
  5
112
100
AcDbEntity
  8
Layer_1
 62
7
100
AcDbSpline
 70
8
 71
3
 72
8
 73
4
 74
0
 40
0
 40
0
 40
0
 40
0
 40
1
 40
1
 40
1
 40
1
 10
33.060171
 20
3.047538
 30
0.0
 10
33.060171
 20
2.192773
 30
0.0
 10
33.751471
 20
1.499606
 30
0.0
 10
34.604797
 20
1.498741
 30
0.0
  0
LINE
  5
113
100
AcDbEntity
  8
Layer_1
 62
7
100
AcDbLine
 10
34.604881
 20
1.498641
 30
0.0
 11
37.597354
 21
1.498641
 31
0.0
  0
SPLINE
  5
114
100
AcDbEntity
  8
Layer_1
 62
7
100
AcDbSpline
 70
8
 71
3
 72
8
 73
4
 74
0
 40
0
 40
0
 40
0
 40
0
 40
1
 40
1
 40
1
 40
1
 10
37.597422
 20
1.498741
 30
0.0
 10
38.450748
 20
1.499606
 30
0.0
 10
39.142048
 20
2.192773
 30
0.0
 10
39.142048
 20
3.047538
 30
0.0
  0
SPLINE
  5
115
100
AcDbEntity
  8
Layer_1
 62
7
100
AcDbSpline
 70
8
 71
3
 72
8
 73
4
 74
0
 40
0
 40
0
 40
0
 40
0
 40
1
 40
1
 40
1
 40
1
 10
39.142048
 20
3.047538
 30
0.0
 10
39.142048
 20
3.902303
 30
0.0
 10
38.450748
 20
4.595469
 30
0.0
 10
37.597422
 20
4.596334
 30
0.0
  0
LINE
  5
116
100
AcDbEntity
  8
Layer_1
 62
7
100
AcDbLine
 10
34.604881
 20
4.596358
 30
0.0
 11
37.597354
 21
4.596358
 31
0.0
  0
SPLINE
  5
117
100
AcDbEntity
  8
Layer_1
 62
7
100
AcDbSpline
 70
8
 71
3
 72
8
 73
4
 74
0
 40
0
 40
0
 40
0
 40
0
 40
1
 40
1
 40
1
 40
1
 10
36.430297
 20
20.284152
 30
0.0
 10
36.429292
 20
22.021786
 30
0.0
 10
35.022750
 20
23.429883
 30
0.0
 10
33.288040
 20
23.429883
 30
0.0
  0
SPLINE
  5
118
100
AcDbEntity
  8
Layer_1
 62
7
100
AcDbSpline
 70
8
 71
3
 72
8
 73
4
 74
0
 40
0
 40
0
 40
0
 40
0
 40
1
 40
1
 40
1
 40
1
 10
33.288040
 20
23.429883
 30
0.0
 10
31.553331
 20
23.429883
 30
0.0
 10
30.146789
 20
22.021786
 30
0.0
 10
30.145783
 20
20.284152
 30
0.0
  0
SPLINE
  5
119
100
AcDbEntity
  8
Layer_1
 62
7
100
AcDbSpline
 70
8
 71
3
 72
8
 73
4
 74
0
 40
0
 40
0
 40
0
 40
0
 40
1
 40
1
 40
1
 40
1
 10
30.145783
 20
20.284152
 30
0.0
 10
30.146789
 20
18.546518
 30
0.0
 10
31.553331
 20
17.138421
 30
0.0
 10
33.288040
 20
17.138421
 30
0.0
  0
SPLINE
  5
11a
100
AcDbEntity
  8
Layer_1
 62
7
100
AcDbSpline
 70
8
 71
3
 72
8
 73
4
 74
0
 40
0
 40
0
 40
0
 40
0
 40
1
 40
1
 40
1
 40
1
 10
33.288040
 20
17.138421
 30
0.0
 10
35.022750
 20
17.138421
 30
0.0
 10
36.429292
 20
18.546518
 30
0.0
 10
36.430297
 20
20.284152
 30
0.0
  0
LINE
  5
11b
100
AcDbEntity
  8
Layer_1
 62
7
100
AcDbLine
 10
36.430297
 20
20.284152
 30
0.0
 11
36.430297
 21
20.284152
 31
0.0
  0
SPLINE
  5
11c
100
AcDbEntity
  8
Layer_1
 62
7
100
AcDbSpline
 70
8
 71
3
 72
8
 73
4
 74
0
 40
0
 40
0
 40
0
 40
0
 40
1
 40
1
 40
1
 40
1
 10
10.494206
 20
70.245347
 30
0.0
 10
10.494206
 20
71.369860
 30
0.0
 10
9.895295
 20
72.408954
 30
0.0
 10
8.923077
 20
72.971210
 30
0.0
  0
SPLINE
  5
11d
100
AcDbEntity
  8
Layer_1
 62
7
100
AcDbSpline
 70
8
 71
3
 72
8
 73
4
 74
0
 40
0
 40
0
 40
0
 40
0
 40
1
 40
1
 40
1
 40
1
 10
8.923077
 20
72.971210
 30
0.0
 10
7.950859
 20
73.533467
 30
0.0
 10
6.753037
 20
73.533467
 30
0.0
 10
5.780818
 20
72.971210
 30
0.0
  0
SPLINE
  5
11e
100
AcDbEntity
  8
Layer_1
 62
7
100
AcDbSpline
 70
8
 71
3
 72
8
 73
4
 74
0
 40
0
 40
0
 40
0
 40
0
 40
1
 40
1
 40
1
 40
1
 10
5.780818
 20
72.971210
 30
0.0
 10
4.808600
 20
72.408954
 30
0.0
 10
4.209689
 20
71.369860
 30
0.0
 10
4.209689
 20
70.245347
 30
0.0
  0
SPLINE
  5
11f
100
AcDbEntity
  8
Layer_1
 62
7
100
AcDbSpline
 70
8
 71
3
 72
8
 73
4
 74
0
 40
0
 40
0
 40
0
 40
0
 40
1
 40
1
 40
1
 40
1
 10
4.209689
 20
70.245347
 30
0.0
 10
4.209689
 20
69.120833
 30
0.0
 10
4.808600
 20
68.081740
 30
0.0
 10
5.780818
 20
67.519483
 30
0.0
  0
SPLINE
  5
120
100
AcDbEntity
  8
Layer_1
 62
7
100
AcDbSpline
 70
8
 71
3
 72
8
 73
4
 74
0
 40
0
 40
0
 40
0
 40
0
 40
1
 40
1
 40
1
 40
1
 10
5.780818
 20
67.519483
 30
0.0
 10
6.753037
 20
66.957226
 30
0.0
 10
7.950859
 20
66.957226
 30
0.0
 10
8.923077
 20
67.519483
 30
0.0
  0
SPLINE
  5
121
100
AcDbEntity
  8
Layer_1
 62
7
100
AcDbSpline
 70
8
 71
3
 72
8
 73
4
 74
0
 40
0
 40
0
 40
0
 40
0
 40
1
 40
1
 40
1
 40
1
 10
8.923077
 20
67.519483
 30
0.0
 10
9.895295
 20
68.081740
 30
0.0
 10
10.494206
 20
69.120833
 30
0.0
 10
10.494206
 20
70.245347
 30
0.0
  0
LINE
  5
122
100
AcDbEntity
  8
Layer_1
 62
7
100
AcDbLine
 10
10.494206
 20
70.245347
 30
0.0
 11
10.494206
 21
70.245347
 31
0.0
  0
SPLINE
  5
123
100
AcDbEntity
  8
Layer_1
 62
7
100
AcDbSpline
 70
8
 71
3
 72
8
 73
4
 74
0
 40
0
 40
0
 40
0
 40
0
 40
1
 40
1
 40
1
 40
1
 10
10.494206
 20
100.222066
 30
0.0
 10
10.494206
 20
101.346579
 30
0.0
 10
9.895295
 20
102.385673
 30
0.0
 10
8.923077
 20
102.947929
 30
0.0
  0
SPLINE
  5
124
100
AcDbEntity
  8
Layer_1
 62
7
100
AcDbSpline
 70
8
 71
3
 72
8
 73
4
 74
0
 40
0
 40
0
 40
0
 40
0
 40
1
 40
1
 40
1
 40
1
 10
8.923077
 20
102.947929
 30
0.0
 10
7.950859
 20
103.510186
 30
0.0
 10
6.753037
 20
103.510186
 30
0.0
 10
5.780818
 20
102.947929
 30
0.0
  0
SPLINE
  5
125
100
AcDbEntity
  8
Layer_1
 62
7
100
AcDbSpline
 70
8
 71
3
 72
8
 73
4
 74
0
 40
0
 40
0
 40
0
 40
0
 40
1
 40
1
 40
1
 40
1
 10
5.780818
 20
102.947929
 30
0.0
 10
4.808600
 20
102.385673
 30
0.0
 10
4.209689
 20
101.346579
 30
0.0
 10
4.209689
 20
100.222066
 30
0.0
  0
SPLINE
  5
126
100
AcDbEntity
  8
Layer_1
 62
7
100
AcDbSpline
 70
8
 71
3
 72
8
 73
4
 74
0
 40
0
 40
0
 40
0
 40
0
 40
1
 40
1
 40
1
 40
1
 10
4.209689
 20
100.222066
 30
0.0
 10
4.209689
 20
99.097552
 30
0.0
 10
4.808600
 20
98.058459
 30
0.0
 10
5.780818
 20
97.496202
 30
0.0
  0
SPLINE
  5
127
100
AcDbEntity
  8
Layer_1
 62
7
100
AcDbSpline
 70
8
 71
3
 72
8
 73
4
 74
0
 40
0
 40
0
 40
0
 40
0
 40
1
 40
1
 40
1
 40
1
 10
5.780818
 20
97.496202
 30
0.0
 10
6.753037
 20
96.933945
 30
0.0
 10
7.950859
 20
96.933945
 30
0.0
 10
8.923077
 20
97.496202
 30
0.0
  0
SPLINE
  5
128
100
AcDbEntity
  8
Layer_1
 62
7
100
AcDbSpline
 70
8
 71
3
 72
8
 73
4
 74
0
 40
0
 40
0
 40
0
 40
0
 40
1
 40
1
 40
1
 40
1
 10
8.923077
 20
97.496202
 30
0.0
 10
9.895295
 20
98.058459
 30
0.0
 10
10.494206
 20
99.097552
 30
0.0
 10
10.494206
 20
100.222066
 30
0.0
  0
LINE
  5
129
100
AcDbEntity
  8
Layer_1
 62
7
100
AcDbLine
 10
10.494206
 20
100.222066
 30
0.0
 11
10.494206
 21
100.222066
 31
0.0
  0
SPLINE
  5
12a
100
AcDbEntity
  8
Layer_1
 62
7
100
AcDbSpline
 70
8
 71
3
 72
8
 73
4
 74
0
 40
0
 40
0
 40
0
 40
0
 40
1
 40
1
 40
1
 40
1
 10
3.042564
 20
127.001268
 30
0.0
 10
2.490164
 20
127.001268
 30
0.0
 10
1.979724
 20
126.706068
 30
0.0
 10
1.703524
 20
126.226869
 30
0.0
  0
SPLINE
  5
12b
100
AcDbEntity
  8
Layer_1
 62
7
100
AcDbSpline
 70
8
 71
3
 72
8
 73
4
 74
0
 40
0
 40
0
 40
0
 40
0
 40
1
 40
1
 40
1
 40
1
 10
1.703524
 20
126.226869
 30
0.0
 10
1.427324
 20
125.747669
 30
0.0
 10
1.427324
 20
125.157271
 30
0.0
 10
1.703524
 20
124.678071
 30
0.0
  0
SPLINE
  5
12c
100
AcDbEntity
  8
Layer_1
 62
7
100
AcDbSpline
 70
8
 71
3
 72
8
 73
4
 74
0
 40
0
 40
0
 40
0
 40
0
 40
1
 40
1
 40
1
 40
1
 10
1.703524
 20
124.678071
 30
0.0
 10
1.979724
 20
124.198871
 30
0.0
 10
2.490164
 20
123.903672
 30
0.0
 10
3.042564
 20
123.903672
 30
0.0
  0
LINE
  5
12d
100
AcDbEntity
  8
Layer_1
 62
7
100
AcDbLine
 10
3.042454
 20
123.903804
 30
0.0
 11
6.035190
 21
123.903804
 31
0.0
  0
SPLINE
  5
12e
100
AcDbEntity
  8
Layer_1
 62
7
100
AcDbSpline
 70
8
 71
3
 72
8
 73
4
 74
0
 40
0
 40
0
 40
0
 40
0
 40
1
 40
1
 40
1
 40
1
 10
6.035192
 20
123.903672
 30
0.0
 10
6.587593
 20
123.903672
 30
0.0
 10
7.098033
 20
124.198871
 30
0.0
 10
7.374233
 20
124.678071
 30
0.0
  0
SPLINE
  5
12f
100
AcDbEntity
  8
Layer_1
 62
7
100
AcDbSpline
 70
8
 71
3
 72
8
 73
4
 74
0
 40
0
 40
0
 40
0
 40
0
 40
1
 40
1
 40
1
 40
1
 10
7.374233
 20
124.678071
 30
0.0
 10
7.650433
 20
125.157271
 30
0.0
 10
7.650433
 20
125.747669
 30
0.0
 10
7.374233
 20
126.226869
 30
0.0
  0
SPLINE
  5
130
100
AcDbEntity
  8
Layer_1
 62
7
100
AcDbSpline
 70
8
 71
3
 72
8
 73
4
 74
0
 40
0
 40
0
 40
0
 40
0
 40
1
 40
1
 40
1
 40
1
 10
7.374233
 20
126.226869
 30
0.0
 10
7.098033
 20
126.706068
 30
0.0
 10
6.587593
 20
127.001268
 30
0.0
 10
6.035192
 20
127.001268
 30
0.0
  0
LINE
  5
131
100
AcDbEntity
  8
Layer_1
 62
7
100
AcDbLine
 10
3.042454
 20
127.001257
 30
0.0
 11
6.035190
 21
127.001257
 31
0.0
  0
SPLINE
  5
132
100
AcDbEntity
  8
Layer_1
 62
7
100
AcDbSpline
 70
8
 71
3
 72
8
 73
4
 74
0
 40
0
 40
0
 40
0
 40
0
 40
1
 40
1
 40
1
 40
1
 10
23.911145
 20
70.245347
 30
0.0
 10
23.911145
 20
72.232029
 30
0.0
 10
22.303331
 20
73.842553
 30
0.0
 10
20.319993
 20
73.842553
 30
0.0
  0
SPLINE
  5
133
100
AcDbEntity
  8
Layer_1
 62
7
100
AcDbSpline
 70
8
 71
3
 72
8
 73
4
 74
0
 40
0
 40
0
 40
0
 40
0
 40
1
 40
1
 40
1
 40
1
 10
20.319993
 20
73.842553
 30
0.0
 10
18.336655
 20
73.842553
 30
0.0
 10
16.728842
 20
72.232029
 30
0.0
 10
16.728842
 20
70.245347
 30
0.0
  0
SPLINE
  5
134
100
AcDbEntity
  8
Layer_1
 62
7
100
AcDbSpline
 70
8
 71
3
 72
8
 73
4
 74
0
 40
0
 40
0
 40
0
 40
0
 40
1
 40
1
 40
1
 40
1
 10
16.728842
 20
70.245347
 30
0.0
 10
16.728842
 20
68.960189
 30
0.0
 10
17.413311
 20
67.772654
 30
0.0
 10
18.524418
 20
67.130075
 30
0.0
  0
SPLINE
  5
135
100
AcDbEntity
  8
Layer_1
 62
7
100
AcDbSpline
 70
8
 71
3
 72
8
 73
4
 74
0
 40
0
 40
0
 40
0
 40
0
 40
1
 40
1
 40
1
 40
1
 10
18.524418
 20
67.130075
 30
0.0
 10
19.635524
 20
66.487496
 30
0.0
 10
21.004463
 20
66.487496
 30
0.0
 10
22.115569
 20
67.130075
 30
0.0
  0
SPLINE
  5
136
100
AcDbEntity
  8
Layer_1
 62
7
100
AcDbSpline
 70
8
 71
3
 72
8
 73
4
 74
0
 40
0
 40
0
 40
0
 40
0
 40
1
 40
1
 40
1
 40
1
 10
22.115569
 20
67.130075
 30
0.0
 10
23.226675
 20
67.772654
 30
0.0
 10
23.911145
 20
68.960189
 30
0.0
 10
23.911145
 20
70.245347
 30
0.0
  0
LINE
  5
137
100
AcDbEntity
  8
Layer_1
 62
7
100
AcDbLine
 10
23.911145
 20
70.245347
 30
0.0
 11
23.911145
 21
70.245347
 31
0.0
  0
SPLINE
  5
138
100
AcDbEntity
  8
Layer_1
 62
7
100
AcDbSpline
 70
8
 71
3
 72
8
 73
4
 74
0
 40
0
 40
0
 40
0
 40
0
 40
1
 40
1
 40
1
 40
1
 10
23.911145
 20
100.222066
 30
0.0
 10
23.911145
 20
102.208748
 30
0.0
 10
22.303331
 20
103.819272
 30
0.0
 10
20.319993
 20
103.819272
 30
0.0
  0
SPLINE
  5
139
100
AcDbEntity
  8
Layer_1
 62
7
100
AcDbSpline
 70
8
 71
3
 72
8
 73
4
 74
0
 40
0
 40
0
 40
0
 40
0
 40
1
 40
1
 40
1
 40
1
 10
20.319993
 20
103.819272
 30
0.0
 10
18.336655
 20
103.819272
 30
0.0
 10
16.728842
 20
102.208748
 30
0.0
 10
16.728842
 20
100.222066
 30
0.0
  0
SPLINE
  5
13a
100
AcDbEntity
  8
Layer_1
 62
7
100
AcDbSpline
 70
8
 71
3
 72
8
 73
4
 74
0
 40
0
 40
0
 40
0
 40
0
 40
1
 40
1
 40
1
 40
1
 10
16.728842
 20
100.222066
 30
0.0
 10
16.728842
 20
98.936908
 30
0.0
 10
17.413311
 20
97.749373
 30
0.0
 10
18.524418
 20
97.106794
 30
0.0
  0
SPLINE
  5
13b
100
AcDbEntity
  8
Layer_1
 62
7
100
AcDbSpline
 70
8
 71
3
 72
8
 73
4
 74
0
 40
0
 40
0
 40
0
 40
0
 40
1
 40
1
 40
1
 40
1
 10
18.524418
 20
97.106794
 30
0.0
 10
19.635524
 20
96.464214
 30
0.0
 10
21.004463
 20
96.464214
 30
0.0
 10
22.115569
 20
97.106794
 30
0.0
  0
SPLINE
  5
13c
100
AcDbEntity
  8
Layer_1
 62
7
100
AcDbSpline
 70
8
 71
3
 72
8
 73
4
 74
0
 40
0
 40
0
 40
0
 40
0
 40
1
 40
1
 40
1
 40
1
 10
22.115569
 20
97.106794
 30
0.0
 10
23.226675
 20
97.749373
 30
0.0
 10
23.911145
 20
98.936908
 30
0.0
 10
23.911145
 20
100.222066
 30
0.0
  0
LINE
  5
13d
100
AcDbEntity
  8
Layer_1
 62
7
100
AcDbLine
 10
23.911145
 20
100.222066
 30
0.0
 11
23.911145
 21
100.222066
 31
0.0
  0
SPLINE
  5
13e
100
AcDbEntity
  8
Layer_1
 62
7
100
AcDbSpline
 70
8
 71
3
 72
8
 73
4
 74
0
 40
0
 40
0
 40
0
 40
0
 40
1
 40
1
 40
1
 40
1
 10
34.604797
 20
127.001268
 30
0.0
 10
34.052396
 20
127.001268
 30
0.0
 10
33.541957
 20
126.706068
 30
0.0
 10
33.265756
 20
126.226869
 30
0.0
  0
SPLINE
  5
13f
100
AcDbEntity
  8
Layer_1
 62
7
100
AcDbSpline
 70
8
 71
3
 72
8
 73
4
 74
0
 40
0
 40
0
 40
0
 40
0
 40
1
 40
1
 40
1
 40
1
 10
33.265756
 20
126.226869
 30
0.0
 10
32.989556
 20
125.747669
 30
0.0
 10
32.989556
 20
125.157271
 30
0.0
 10
33.265756
 20
124.678071
 30
0.0
  0
SPLINE
  5
140
100
AcDbEntity
  8
Layer_1
 62
7
100
AcDbSpline
 70
8
 71
3
 72
8
 73
4
 74
0
 40
0
 40
0
 40
0
 40
0
 40
1
 40
1
 40
1
 40
1
 10
33.265756
 20
124.678071
 30
0.0
 10
33.541957
 20
124.198871
 30
0.0
 10
34.052396
 20
123.903672
 30
0.0
 10
34.604797
 20
123.903672
 30
0.0
  0
LINE
  5
141
100
AcDbEntity
  8
Layer_1
 62
7
100
AcDbLine
 10
34.604881
 20
123.903804
 30
0.0
 11
37.597354
 21
123.903804
 31
0.0
  0
SPLINE
  5
142
100
AcDbEntity
  8
Layer_1
 62
7
100
AcDbSpline
 70
8
 71
3
 72
8
 73
4
 74
0
 40
0
 40
0
 40
0
 40
0
 40
1
 40
1
 40
1
 40
1
 10
37.597422
 20
123.903672
 30
0.0
 10
38.149823
 20
123.903672
 30
0.0
 10
38.660262
 20
124.198871
 30
0.0
 10
38.936463
 20
124.678071
 30
0.0
  0
SPLINE
  5
143
100
AcDbEntity
  8
Layer_1
 62
7
100
AcDbSpline
 70
8
 71
3
 72
8
 73
4
 74
0
 40
0
 40
0
 40
0
 40
0
 40
1
 40
1
 40
1
 40
1
 10
38.936463
 20
124.678071
 30
0.0
 10
39.212663
 20
125.157271
 30
0.0
 10
39.212663
 20
125.747669
 30
0.0
 10
38.936463
 20
126.226869
 30
0.0
  0
SPLINE
  5
144
100
AcDbEntity
  8
Layer_1
 62
7
100
AcDbSpline
 70
8
 71
3
 72
8
 73
4
 74
0
 40
0
 40
0
 40
0
 40
0
 40
1
 40
1
 40
1
 40
1
 10
38.936463
 20
126.226869
 30
0.0
 10
38.660262
 20
126.706068
 30
0.0
 10
38.149823
 20
127.001268
 30
0.0
 10
37.597422
 20
127.001268
 30
0.0
  0
LINE
  5
145
100
AcDbEntity
  8
Layer_1
 62
7
100
AcDbLine
 10
34.604881
 20
127.001257
 30
0.0
 11
37.597354
 21
127.001257
 31
0.0
  0
LINE
  5
146
100
AcDbEntity
  8
text
 62
7
100
AcDbLine
 10
4.856414
 20
93.754177
 30
0.0
 11
4.657447
 21
93.686444
 31
0.0
  0
LINE
  5
147
100
AcDbEntity
  8
text
 62
7
100
AcDbLine
 10
4.657447
 20
93.686444
 30
0.0
 11
4.521980
 21
93.487477
 31
0.0
  0
LINE
  5
148
100
AcDbEntity
  8
text
 62
7
100
AcDbLine
 10
4.521980
 20
93.487477
 30
0.0
 11
4.456363
 21
93.153043
 31
0.0
  0
LINE
  5
149
100
AcDbEntity
  8
text
 62
7
100
AcDbLine
 10
4.456363
 20
93.153043
 30
0.0
 11
4.456363
 21
92.954076
 31
0.0
  0
LINE
  5
14a
100
AcDbEntity
  8
text
 62
7
100
AcDbLine
 10
4.456363
 20
92.954076
 30
0.0
 11
4.521980
 21
92.619642
 31
0.0
  0
LINE
  5
14b
100
AcDbEntity
  8
text
 62
7
100
AcDbLine
 10
4.521980
 20
92.619642
 30
0.0
 11
4.657447
 21
92.419617
 31
0.0
  0
LINE
  5
14c
100
AcDbEntity
  8
text
 62
7
100
AcDbLine
 10
4.657447
 20
92.419617
 30
0.0
 11
4.856414
 21
92.352942
 31
0.0
  0
LINE
  5
14d
100
AcDbEntity
  8
text
 62
7
100
AcDbLine
 10
4.856414
 20
92.352942
 30
0.0
 11
4.989764
 21
92.352942
 31
0.0
  0
LINE
  5
14e
100
AcDbEntity
  8
text
 62
7
100
AcDbLine
 10
4.989764
 20
92.352942
 30
0.0
 11
5.190848
 21
92.419617
 31
0.0
  0
LINE
  5
14f
100
AcDbEntity
  8
text
 62
7
100
AcDbLine
 10
5.190848
 20
92.419617
 30
0.0
 11
5.322081
 21
92.619642
 31
0.0
  0
LINE
  5
150
100
AcDbEntity
  8
text
 62
7
100
AcDbLine
 10
5.322081
 20
92.619642
 30
0.0
 11
5.389814
 21
92.954076
 31
0.0
  0
LINE
  5
151
100
AcDbEntity
  8
text
 62
7
100
AcDbLine
 10
5.389814
 20
92.954076
 30
0.0
 11
5.389814
 21
93.153043
 31
0.0
  0
LINE
  5
152
100
AcDbEntity
  8
text
 62
7
100
AcDbLine
 10
5.389814
 20
93.153043
 30
0.0
 11
5.322081
 21
93.487477
 31
0.0
  0
LINE
  5
153
100
AcDbEntity
  8
text
 62
7
100
AcDbLine
 10
5.322081
 20
93.487477
 30
0.0
 11
5.190848
 21
93.686444
 31
0.0
  0
LINE
  5
154
100
AcDbEntity
  8
text
 62
7
100
AcDbLine
 10
5.190848
 20
93.686444
 30
0.0
 11
4.989764
 21
93.754177
 31
0.0
  0
LINE
  5
155
100
AcDbEntity
  8
text
 62
7
100
AcDbLine
 10
4.989764
 20
93.754177
 30
0.0
 11
4.856414
 21
93.754177
 31
0.0
  0
LINE
  5
156
100
AcDbEntity
  8
text
 62
7
100
AcDbLine
 10
5.696527
 20
93.053559
 30
0.0
 11
6.516160
 21
93.053559
 31
0.0
  0
LINE
  5
157
100
AcDbEntity
  8
text
 62
7
100
AcDbLine
 10
6.847884
 20
93.487479
 30
0.0
 11
6.979118
 21
93.553096
 31
0.0
  0
LINE
  5
158
100
AcDbEntity
  8
text
 62
7
100
AcDbLine
 10
6.979118
 20
93.553096
 30
0.0
 11
7.180201
 21
93.754179
 31
0.0
  0
LINE
  5
159
100
AcDbEntity
  8
text
 62
7
100
AcDbLine
 10
7.180201
 20
93.754179
 30
0.0
 11
7.180201
 21
92.352944
 31
0.0
  0
LINE
  5
15a
100
AcDbEntity
  8
text
 62
7
100
AcDbLine
 10
8.380361
 20
93.754177
 30
0.0
 11
8.181394
 21
93.686443
 31
0.0
  0
LINE
  5
15b
100
AcDbEntity
  8
text
 62
7
100
AcDbLine
 10
8.181394
 20
93.686443
 30
0.0
 11
8.045927
 21
93.487476
 31
0.0
  0
LINE
  5
15c
100
AcDbEntity
  8
text
 62
7
100
AcDbLine
 10
8.045927
 20
93.487476
 30
0.0
 11
7.980310
 21
93.153042
 31
0.0
  0
LINE
  5
15d
100
AcDbEntity
  8
text
 62
7
100
AcDbLine
 10
7.980310
 20
93.153042
 30
0.0
 11
7.980310
 21
92.954075
 31
0.0
  0
LINE
  5
15e
100
AcDbEntity
  8
text
 62
7
100
AcDbLine
 10
7.980310
 20
92.954075
 30
0.0
 11
8.045927
 21
92.619641
 31
0.0
  0
LINE
  5
15f
100
AcDbEntity
  8
text
 62
7
100
AcDbLine
 10
8.045927
 20
92.619641
 30
0.0
 11
8.181394
 21
92.419616
 31
0.0
  0
LINE
  5
160
100
AcDbEntity
  8
text
 62
7
100
AcDbLine
 10
8.181394
 20
92.419616
 30
0.0
 11
8.380361
 21
92.352941
 31
0.0
  0
LINE
  5
161
100
AcDbEntity
  8
text
 62
7
100
AcDbLine
 10
8.380361
 20
92.352941
 30
0.0
 11
8.513711
 21
92.352941
 31
0.0
  0
LINE
  5
162
100
AcDbEntity
  8
text
 62
7
100
AcDbLine
 10
8.513711
 20
92.352941
 30
0.0
 11
8.714795
 21
92.419616
 31
0.0
  0
LINE
  5
163
100
AcDbEntity
  8
text
 62
7
100
AcDbLine
 10
8.714795
 20
92.419616
 30
0.0
 11
8.846029
 21
92.619641
 31
0.0
  0
LINE
  5
164
100
AcDbEntity
  8
text
 62
7
100
AcDbLine
 10
8.846029
 20
92.619641
 30
0.0
 11
8.913762
 21
92.954075
 31
0.0
  0
LINE
  5
165
100
AcDbEntity
  8
text
 62
7
100
AcDbLine
 10
8.913762
 20
92.954075
 30
0.0
 11
8.913762
 21
93.153043
 31
0.0
  0
LINE
  5
166
100
AcDbEntity
  8
text
 62
7
100
AcDbLine
 10
8.913762
 20
93.153043
 30
0.0
 11
8.846029
 21
93.487477
 31
0.0
  0
LINE
  5
167
100
AcDbEntity
  8
text
 62
7
100
AcDbLine
 10
8.846029
 20
93.487477
 30
0.0
 11
8.714795
 21
93.686444
 31
0.0
  0
LINE
  5
168
100
AcDbEntity
  8
text
 62
7
100
AcDbLine
 10
8.714795
 20
93.686444
 30
0.0
 11
8.513711
 21
93.754177
 31
0.0
  0
LINE
  5
169
100
AcDbEntity
  8
text
 62
7
100
AcDbLine
 10
8.513711
 20
93.754177
 30
0.0
 11
8.380361
 21
93.754177
 31
0.0
  0
LINE
  5
16a
100
AcDbEntity
  8
text
 62
7
100
AcDbLine
 10
9.180460
 20
93.754177
 30
0.0
 11
9.713861
 21
92.352942
 31
0.0
  0
LINE
  5
16b
100
AcDbEntity
  8
text
 62
7
100
AcDbLine
 10
10.247262
 20
93.754177
 30
0.0
 11
9.713861
 21
92.352942
 31
0.0
  0
LINE
  5
16c
100
AcDbEntity
  8
text
 62
7
100
AcDbLine
 10
4.856414
 20
63.786677
 30
0.0
 11
4.657447
 21
63.718944
 31
0.0
  0
LINE
  5
16d
100
AcDbEntity
  8
text
 62
7
100
AcDbLine
 10
4.657447
 20
63.718944
 30
0.0
 11
4.521980
 21
63.519977
 31
0.0
  0
LINE
  5
16e
100
AcDbEntity
  8
text
 62
7
100
AcDbLine
 10
4.521980
 20
63.519977
 30
0.0
 11
4.456363
 21
63.185543
 31
0.0
  0
LINE
  5
16f
100
AcDbEntity
  8
text
 62
7
100
AcDbLine
 10
4.456363
 20
63.185543
 30
0.0
 11
4.456363
 21
62.986576
 31
0.0
  0
LINE
  5
170
100
AcDbEntity
  8
text
 62
7
100
AcDbLine
 10
4.456363
 20
62.986576
 30
0.0
 11
4.521980
 21
62.652142
 31
0.0
  0
LINE
  5
171
100
AcDbEntity
  8
text
 62
7
100
AcDbLine
 10
4.521980
 20
62.652142
 30
0.0
 11
4.657447
 21
62.452117
 31
0.0
  0
LINE
  5
172
100
AcDbEntity
  8
text
 62
7
100
AcDbLine
 10
4.657447
 20
62.452117
 30
0.0
 11
4.856414
 21
62.385442
 31
0.0
  0
LINE
  5
173
100
AcDbEntity
  8
text
 62
7
100
AcDbLine
 10
4.856414
 20
62.385442
 30
0.0
 11
4.989764
 21
62.385442
 31
0.0
  0
LINE
  5
174
100
AcDbEntity
  8
text
 62
7
100
AcDbLine
 10
4.989764
 20
62.385442
 30
0.0
 11
5.190848
 21
62.452117
 31
0.0
  0
LINE
  5
175
100
AcDbEntity
  8
text
 62
7
100
AcDbLine
 10
5.190848
 20
62.452117
 30
0.0
 11
5.322081
 21
62.652142
 31
0.0
  0
LINE
  5
176
100
AcDbEntity
  8
text
 62
7
100
AcDbLine
 10
5.322081
 20
62.652142
 30
0.0
 11
5.389814
 21
62.986576
 31
0.0
  0
LINE
  5
177
100
AcDbEntity
  8
text
 62
7
100
AcDbLine
 10
5.389814
 20
62.986576
 30
0.0
 11
5.389814
 21
63.185543
 31
0.0
  0
LINE
  5
178
100
AcDbEntity
  8
text
 62
7
100
AcDbLine
 10
5.389814
 20
63.185543
 30
0.0
 11
5.322081
 21
63.519976
 31
0.0
  0
LINE
  5
179
100
AcDbEntity
  8
text
 62
7
100
AcDbLine
 10
5.322081
 20
63.519976
 30
0.0
 11
5.190848
 21
63.718943
 31
0.0
  0
LINE
  5
17a
100
AcDbEntity
  8
text
 62
7
100
AcDbLine
 10
5.190848
 20
63.718943
 30
0.0
 11
4.989764
 21
63.786677
 31
0.0
  0
LINE
  5
17b
100
AcDbEntity
  8
text
 62
7
100
AcDbLine
 10
4.989764
 20
63.786677
 30
0.0
 11
4.856414
 21
63.786677
 31
0.0
  0
LINE
  5
17c
100
AcDbEntity
  8
text
 62
7
100
AcDbLine
 10
5.696527
 20
63.086059
 30
0.0
 11
6.516160
 21
63.086059
 31
0.0
  0
LINE
  5
17d
100
AcDbEntity
  8
text
 62
7
100
AcDbLine
 10
6.847884
 20
63.519978
 30
0.0
 11
6.979118
 21
63.585595
 31
0.0
  0
LINE
  5
17e
100
AcDbEntity
  8
text
 62
7
100
AcDbLine
 10
6.979118
 20
63.585595
 30
0.0
 11
7.180201
 21
63.786679
 31
0.0
  0
LINE
  5
17f
100
AcDbEntity
  8
text
 62
7
100
AcDbLine
 10
7.180201
 20
63.786679
 30
0.0
 11
7.180201
 21
62.385444
 31
0.0
  0
LINE
  5
180
100
AcDbEntity
  8
text
 62
7
100
AcDbLine
 10
8.380361
 20
63.786677
 30
0.0
 11
8.181394
 21
63.718943
 31
0.0
  0
LINE
  5
181
100
AcDbEntity
  8
text
 62
7
100
AcDbLine
 10
8.181394
 20
63.718943
 30
0.0
 11
8.045927
 21
63.519976
 31
0.0
  0
LINE
  5
182
100
AcDbEntity
  8
text
 62
7
100
AcDbLine
 10
8.045927
 20
63.519976
 30
0.0
 11
7.980310
 21
63.185542
 31
0.0
  0
LINE
  5
183
100
AcDbEntity
  8
text
 62
7
100
AcDbLine
 10
7.980310
 20
63.185542
 30
0.0
 11
7.980310
 21
62.986575
 31
0.0
  0
LINE
  5
184
100
AcDbEntity
  8
text
 62
7
100
AcDbLine
 10
7.980310
 20
62.986575
 30
0.0
 11
8.045927
 21
62.652141
 31
0.0
  0
LINE
  5
185
100
AcDbEntity
  8
text
 62
7
100
AcDbLine
 10
8.045927
 20
62.652141
 30
0.0
 11
8.181394
 21
62.452116
 31
0.0
  0
LINE
  5
186
100
AcDbEntity
  8
text
 62
7
100
AcDbLine
 10
8.181394
 20
62.452116
 30
0.0
 11
8.380361
 21
62.385441
 31
0.0
  0
LINE
  5
187
100
AcDbEntity
  8
text
 62
7
100
AcDbLine
 10
8.380361
 20
62.385441
 30
0.0
 11
8.513711
 21
62.385441
 31
0.0
  0
LINE
  5
188
100
AcDbEntity
  8
text
 62
7
100
AcDbLine
 10
8.513711
 20
62.385441
 30
0.0
 11
8.714795
 21
62.452116
 31
0.0
  0
LINE
  5
189
100
AcDbEntity
  8
text
 62
7
100
AcDbLine
 10
8.714795
 20
62.452116
 30
0.0
 11
8.846029
 21
62.652141
 31
0.0
  0
LINE
  5
18a
100
AcDbEntity
  8
text
 62
7
100
AcDbLine
 10
8.846029
 20
62.652141
 30
0.0
 11
8.913762
 21
62.986575
 31
0.0
  0
LINE
  5
18b
100
AcDbEntity
  8
text
 62
7
100
AcDbLine
 10
8.913762
 20
62.986575
 30
0.0
 11
8.913762
 21
63.185543
 31
0.0
  0
LINE
  5
18c
100
AcDbEntity
  8
text
 62
7
100
AcDbLine
 10
8.913762
 20
63.185543
 30
0.0
 11
8.846029
 21
63.519977
 31
0.0
  0
LINE
  5
18d
100
AcDbEntity
  8
text
 62
7
100
AcDbLine
 10
8.846029
 20
63.519977
 30
0.0
 11
8.714795
 21
63.718944
 31
0.0
  0
LINE
  5
18e
100
AcDbEntity
  8
text
 62
7
100
AcDbLine
 10
8.714795
 20
63.718944
 30
0.0
 11
8.513711
 21
63.786677
 31
0.0
  0
LINE
  5
18f
100
AcDbEntity
  8
text
 62
7
100
AcDbLine
 10
8.513711
 20
63.786677
 30
0.0
 11
8.380361
 21
63.786677
 31
0.0
  0
LINE
  5
190
100
AcDbEntity
  8
text
 62
7
100
AcDbLine
 10
9.180460
 20
63.786677
 30
0.0
 11
9.713861
 21
62.385442
 31
0.0
  0
LINE
  5
191
100
AcDbEntity
  8
text
 62
7
100
AcDbLine
 10
10.247262
 20
63.786677
 30
0.0
 11
9.713861
 21
62.385442
 31
0.0
  0
LINE
  5
192
100
AcDbEntity
  8
text
 62
7
100
AcDbLine
 10
18.431488
 20
14.775545
 30
0.0
 11
18.431488
 21
13.957355
 31
0.0
  0
LINE
  5
193
100
AcDbEntity
  8
text
 62
7
100
AcDbLine
 10
18.021672
 20
14.367171
 30
0.0
 11
18.841304
 21
14.367171
 31
0.0
  0
LINE
  5
194
100
AcDbEntity
  8
text
 62
7
100
AcDbLine
 10
18.018528
 20
13.660347
 30
0.0
 11
18.838161
 21
13.660347
 31
0.0
  0
LINE
  5
195
100
AcDbEntity
  8
text
 62
7
100
AcDbLine
 10
19.187544
 20
14.667095
 30
0.0
 11
19.318778
 21
14.732712
 31
0.0
  0
LINE
  5
196
100
AcDbEntity
  8
text
 62
7
100
AcDbLine
 10
19.318778
 20
14.732712
 30
0.0
 11
19.519861
 21
14.933796
 31
0.0
  0
LINE
  5
197
100
AcDbEntity
  8
text
 62
7
100
AcDbLine
 10
19.519861
 20
14.933796
 30
0.0
 11
19.519861
 21
13.532560
 31
0.0
  0
LINE
  5
198
100
AcDbEntity
  8
text
 62
7
100
AcDbLine
 10
20.720011
 20
14.933796
 30
0.0
 11
20.521044
 21
14.866062
 31
0.0
  0
LINE
  5
199
100
AcDbEntity
  8
text
 62
7
100
AcDbLine
 10
20.521044
 20
14.866062
 30
0.0
 11
20.385577
 21
14.667095
 31
0.0
  0
LINE
  5
19a
100
AcDbEntity
  8
text
 62
7
100
AcDbLine
 10
20.385577
 20
14.667095
 30
0.0
 11
20.319961
 21
14.332661
 31
0.0
  0
LINE
  5
19b
100
AcDbEntity
  8
text
 62
7
100
AcDbLine
 10
20.319961
 20
14.332661
 30
0.0
 11
20.319961
 21
14.133694
 31
0.0
  0
LINE
  5
19c
100
AcDbEntity
  8
text
 62
7
100
AcDbLine
 10
20.319961
 20
14.133694
 30
0.0
 11
20.385577
 21
13.799260
 31
0.0
  0
LINE
  5
19d
100
AcDbEntity
  8
text
 62
7
100
AcDbLine
 10
20.385577
 20
13.799260
 30
0.0
 11
20.521044
 21
13.599235
 31
0.0
  0
LINE
  5
19e
100
AcDbEntity
  8
text
 62
7
100
AcDbLine
 10
20.521044
 20
13.599235
 30
0.0
 11
20.720011
 21
13.532560
 31
0.0
  0
LINE
  5
19f
100
AcDbEntity
  8
text
 62
7
100
AcDbLine
 10
20.720011
 20
13.532560
 30
0.0
 11
20.853361
 21
13.532560
 31
0.0
  0
LINE
  5
1a0
100
AcDbEntity
  8
text
 62
7
100
AcDbLine
 10
20.853361
 20
13.532560
 30
0.0
 11
21.054445
 21
13.599235
 31
0.0
  0
LINE
  5
1a1
100
AcDbEntity
  8
text
 62
7
100
AcDbLine
 10
21.054445
 20
13.599235
 30
0.0
 11
21.185679
 21
13.799260
 31
0.0
  0
LINE
  5
1a2
100
AcDbEntity
  8
text
 62
7
100
AcDbLine
 10
21.185679
 20
13.799260
 30
0.0
 11
21.253412
 21
14.133694
 31
0.0
  0
LINE
  5
1a3
100
AcDbEntity
  8
text
 62
7
100
AcDbLine
 10
21.253412
 20
14.133694
 30
0.0
 11
21.253412
 21
14.332661
 31
0.0
  0
LINE
  5
1a4
100
AcDbEntity
  8
text
 62
7
100
AcDbLine
 10
21.253412
 20
14.332661
 30
0.0
 11
21.185679
 21
14.667095
 31
0.0
  0
LINE
  5
1a5
100
AcDbEntity
  8
text
 62
7
100
AcDbLine
 10
21.185679
 20
14.667095
 30
0.0
 11
21.054445
 21
14.866062
 31
0.0
  0
LINE
  5
1a6
100
AcDbEntity
  8
text
 62
7
100
AcDbLine
 10
21.054445
 20
14.866062
 30
0.0
 11
20.853361
 21
14.933796
 31
0.0
  0
LINE
  5
1a7
100
AcDbEntity
  8
text
 62
7
100
AcDbLine
 10
20.853361
 20
14.933796
 30
0.0
 11
20.720011
 21
14.933796
 31
0.0
  0
LINE
  5
1a8
100
AcDbEntity
  8
text
 62
7
100
AcDbLine
 10
21.520110
 20
14.933796
 30
0.0
 11
22.053511
 21
13.532560
 31
0.0
  0
LINE
  5
1a9
100
AcDbEntity
  8
text
 62
7
100
AcDbLine
 10
22.586912
 20
14.933796
 30
0.0
 11
22.053511
 21
13.532560
 31
0.0
  0
LINE
  5
1aa
100
AcDbEntity
  8
text
 62
7
100
AcDbLine
 10
11.698091
 20
125.500016
 30
0.0
 11
11.698091
 21
123.631700
 31
0.0
  0
LINE
  5
1ab
100
AcDbEntity
  8
text
 62
7
100
AcDbLine
 10
11.698091
 20
125.500016
 30
0.0
 11
12.499604
 21
125.500016
 31
0.0
  0
LINE
  5
1ac
100
AcDbEntity
  8
text
 62
7
100
AcDbLine
 10
12.499604
 20
125.500016
 30
0.0
 11
12.764894
 21
125.409705
 31
0.0
  0
LINE
  5
1ad
100
AcDbEntity
  8
text
 62
7
100
AcDbLine
 10
12.764894
 20
125.409705
 30
0.0
 11
12.855205
 21
125.319394
 31
0.0
  0
LINE
  5
1ae
100
AcDbEntity
  8
text
 62
7
100
AcDbLine
 10
12.855205
 20
125.319394
 30
0.0
 11
12.945516
 21
125.144415
 31
0.0
  0
LINE
  5
1af
100
AcDbEntity
  8
text
 62
7
100
AcDbLine
 10
12.945516
 20
125.144415
 30
0.0
 11
12.945516
 21
124.963793
 31
0.0
  0
LINE
  5
1b0
100
AcDbEntity
  8
text
 62
7
100
AcDbLine
 10
12.945516
 20
124.963793
 30
0.0
 11
12.855205
 21
124.788814
 31
0.0
  0
LINE
  5
1b1
100
AcDbEntity
  8
text
 62
7
100
AcDbLine
 10
12.855205
 20
124.788814
 30
0.0
 11
12.764894
 21
124.698503
 31
0.0
  0
LINE
  5
1b2
100
AcDbEntity
  8
text
 62
7
100
AcDbLine
 10
12.764894
 20
124.698503
 30
0.0
 11
12.499604
 21
124.608192
 31
0.0
  0
LINE
  5
1b3
100
AcDbEntity
  8
text
 62
7
100
AcDbLine
 10
12.499604
 20
124.608192
 30
0.0
 11
11.698091
 21
124.608192
 31
0.0
  0
LINE
  5
1b4
100
AcDbEntity
  8
text
 62
7
100
AcDbLine
 10
12.321803
 20
124.608192
 30
0.0
 11
12.945516
 21
123.631700
 31
0.0
  0
LINE
  5
1b5
100
AcDbEntity
  8
text
 62
7
100
AcDbLine
 10
13.922012
 20
124.876303
 30
0.0
 11
13.747033
 21
124.788814
 31
0.0
  0
LINE
  5
1b6
100
AcDbEntity
  8
text
 62
7
100
AcDbLine
 10
13.747033
 20
124.788814
 30
0.0
 11
13.566411
 21
124.608192
 31
0.0
  0
LINE
  5
1b7
100
AcDbEntity
  8
text
 62
7
100
AcDbLine
 10
13.566411
 20
124.608192
 30
0.0
 11
13.478921
 21
124.342902
 31
0.0
  0
LINE
  5
1b8
100
AcDbEntity
  8
text
 62
7
100
AcDbLine
 10
13.478921
 20
124.342902
 30
0.0
 11
13.478921
 21
124.165101
 31
0.0
  0
LINE
  5
1b9
100
AcDbEntity
  8
text
 62
7
100
AcDbLine
 10
13.478921
 20
124.165101
 30
0.0
 11
13.566411
 21
123.898401
 31
0.0
  0
LINE
  5
1ba
100
AcDbEntity
  8
text
 62
7
100
AcDbLine
 10
13.566411
 20
123.898401
 30
0.0
 11
13.747033
 21
123.720600
 31
0.0
  0
LINE
  5
1bb
100
AcDbEntity
  8
text
 62
7
100
AcDbLine
 10
13.747033
 20
123.720600
 30
0.0
 11
13.922012
 21
123.631700
 31
0.0
  0
LINE
  5
1bc
100
AcDbEntity
  8
text
 62
7
100
AcDbLine
 10
13.922012
 20
123.631700
 30
0.0
 11
14.190123
 21
123.631700
 31
0.0
  0
LINE
  5
1bd
100
AcDbEntity
  8
text
 62
7
100
AcDbLine
 10
14.190123
 20
123.631700
 30
0.0
 11
14.367924
 21
123.720600
 31
0.0
  0
LINE
  5
1be
100
AcDbEntity
  8
text
 62
7
100
AcDbLine
 10
14.367924
 20
123.720600
 30
0.0
 11
14.545724
 21
123.898401
 31
0.0
  0
LINE
  5
1bf
100
AcDbEntity
  8
text
 62
7
100
AcDbLine
 10
14.545724
 20
123.898401
 30
0.0
 11
14.633214
 21
124.165101
 31
0.0
  0
LINE
  5
1c0
100
AcDbEntity
  8
text
 62
7
100
AcDbLine
 10
14.633214
 20
124.165101
 30
0.0
 11
14.633214
 21
124.342902
 31
0.0
  0
LINE
  5
1c1
100
AcDbEntity
  8
text
 62
7
100
AcDbLine
 10
14.633214
 20
124.342902
 30
0.0
 11
14.545724
 21
124.608192
 31
0.0
  0
LINE
  5
1c2
100
AcDbEntity
  8
text
 62
7
100
AcDbLine
 10
14.545724
 20
124.608192
 30
0.0
 11
14.367924
 21
124.788814
 31
0.0
  0
LINE
  5
1c3
100
AcDbEntity
  8
text
 62
7
100
AcDbLine
 10
14.367924
 20
124.788814
 30
0.0
 11
14.190123
 21
124.876303
 31
0.0
  0
LINE
  5
1c4
100
AcDbEntity
  8
text
 62
7
100
AcDbLine
 10
14.190123
 20
124.876303
 30
0.0
 11
13.922012
 21
124.876303
 31
0.0
  0
LINE
  5
1c5
100
AcDbEntity
  8
text
 62
7
100
AcDbLine
 10
15.254101
 20
125.500016
 30
0.0
 11
15.254101
 21
123.631700
 31
0.0
  0
LINE
  5
1c6
100
AcDbEntity
  8
text
 62
7
100
AcDbLine
 10
15.254101
 20
124.608192
 30
0.0
 11
15.434723
 21
124.788814
 31
0.0
  0
LINE
  5
1c7
100
AcDbEntity
  8
text
 62
7
100
AcDbLine
 10
15.434723
 20
124.788814
 30
0.0
 11
15.609702
 21
124.876303
 31
0.0
  0
LINE
  5
1c8
100
AcDbEntity
  8
text
 62
7
100
AcDbLine
 10
15.609702
 20
124.876303
 30
0.0
 11
15.877813
 21
124.876303
 31
0.0
  0
LINE
  5
1c9
100
AcDbEntity
  8
text
 62
7
100
AcDbLine
 10
15.877813
 20
124.876303
 30
0.0
 11
16.055614
 21
124.788814
 31
0.0
  0
LINE
  5
1ca
100
AcDbEntity
  8
text
 62
7
100
AcDbLine
 10
16.055614
 20
124.788814
 30
0.0
 11
16.233414
 21
124.608192
 31
0.0
  0
LINE
  5
1cb
100
AcDbEntity
  8
text
 62
7
100
AcDbLine
 10
16.233414
 20
124.608192
 30
0.0
 11
16.320904
 21
124.342902
 31
0.0
  0
LINE
  5
1cc
100
AcDbEntity
  8
text
 62
7
100
AcDbLine
 10
16.320904
 20
124.342902
 30
0.0
 11
16.320904
 21
124.165101
 31
0.0
  0
LINE
  5
1cd
100
AcDbEntity
  8
text
 62
7
100
AcDbLine
 10
16.320904
 20
124.165101
 30
0.0
 11
16.233414
 21
123.898401
 31
0.0
  0
LINE
  5
1ce
100
AcDbEntity
  8
text
 62
7
100
AcDbLine
 10
16.233414
 20
123.898401
 30
0.0
 11
16.055614
 21
123.720600
 31
0.0
  0
LINE
  5
1cf
100
AcDbEntity
  8
text
 62
7
100
AcDbLine
 10
16.055614
 20
123.720600
 30
0.0
 11
15.877813
 21
123.631700
 31
0.0
  0
LINE
  5
1d0
100
AcDbEntity
  8
text
 62
7
100
AcDbLine
 10
15.877813
 20
123.631700
 30
0.0
 11
15.609702
 21
123.631700
 31
0.0
  0
LINE
  5
1d1
100
AcDbEntity
  8
text
 62
7
100
AcDbLine
 10
15.609702
 20
123.631700
 30
0.0
 11
15.434723
 21
123.720600
 31
0.0
  0
LINE
  5
1d2
100
AcDbEntity
  8
text
 62
7
100
AcDbLine
 10
15.434723
 20
123.720600
 30
0.0
 11
15.254101
 21
123.898401
 31
0.0
  0
LINE
  5
1d3
100
AcDbEntity
  8
text
 62
7
100
AcDbLine
 10
17.297392
 20
124.876303
 30
0.0
 11
17.122413
 21
124.788814
 31
0.0
  0
LINE
  5
1d4
100
AcDbEntity
  8
text
 62
7
100
AcDbLine
 10
17.122413
 20
124.788814
 30
0.0
 11
16.941791
 21
124.608192
 31
0.0
  0
LINE
  5
1d5
100
AcDbEntity
  8
text
 62
7
100
AcDbLine
 10
16.941791
 20
124.608192
 30
0.0
 11
16.854301
 21
124.342902
 31
0.0
  0
LINE
  5
1d6
100
AcDbEntity
  8
text
 62
7
100
AcDbLine
 10
16.854301
 20
124.342902
 30
0.0
 11
16.854301
 21
124.165101
 31
0.0
  0
LINE
  5
1d7
100
AcDbEntity
  8
text
 62
7
100
AcDbLine
 10
16.854301
 20
124.165101
 30
0.0
 11
16.941791
 21
123.898401
 31
0.0
  0
LINE
  5
1d8
100
AcDbEntity
  8
text
 62
7
100
AcDbLine
 10
16.941791
 20
123.898401
 30
0.0
 11
17.122413
 21
123.720600
 31
0.0
  0
LINE
  5
1d9
100
AcDbEntity
  8
text
 62
7
100
AcDbLine
 10
17.122413
 20
123.720600
 30
0.0
 11
17.297392
 21
123.631700
 31
0.0
  0
LINE
  5
1da
100
AcDbEntity
  8
text
 62
7
100
AcDbLine
 10
17.297392
 20
123.631700
 30
0.0
 11
17.565503
 21
123.631700
 31
0.0
  0
LINE
  5
1db
100
AcDbEntity
  8
text
 62
7
100
AcDbLine
 10
17.565503
 20
123.631700
 30
0.0
 11
17.743304
 21
123.720600
 31
0.0
  0
LINE
  5
1dc
100
AcDbEntity
  8
text
 62
7
100
AcDbLine
 10
17.743304
 20
123.720600
 30
0.0
 11
17.921104
 21
123.898401
 31
0.0
  0
LINE
  5
1dd
100
AcDbEntity
  8
text
 62
7
100
AcDbLine
 10
17.921104
 20
123.898401
 30
0.0
 11
18.008594
 21
124.165101
 31
0.0
  0
LINE
  5
1de
100
AcDbEntity
  8
text
 62
7
100
AcDbLine
 10
18.008594
 20
124.165101
 30
0.0
 11
18.008594
 21
124.342902
 31
0.0
  0
LINE
  5
1df
100
AcDbEntity
  8
text
 62
7
100
AcDbLine
 10
18.008594
 20
124.342902
 30
0.0
 11
17.921104
 21
124.608192
 31
0.0
  0
LINE
  5
1e0
100
AcDbEntity
  8
text
 62
7
100
AcDbLine
 10
17.921104
 20
124.608192
 30
0.0
 11
17.743304
 21
124.788814
 31
0.0
  0
LINE
  5
1e1
100
AcDbEntity
  8
text
 62
7
100
AcDbLine
 10
17.743304
 20
124.788814
 30
0.0
 11
17.565503
 21
124.876303
 31
0.0
  0
LINE
  5
1e2
100
AcDbEntity
  8
text
 62
7
100
AcDbLine
 10
17.565503
 20
124.876303
 30
0.0
 11
17.297392
 21
124.876303
 31
0.0
  0
LINE
  5
1e3
100
AcDbEntity
  8
text
 62
7
100
AcDbLine
 10
18.719802
 20
125.500016
 30
0.0
 11
18.719802
 21
123.987301
 31
0.0
  0
LINE
  5
1e4
100
AcDbEntity
  8
text
 62
7
100
AcDbLine
 10
18.719802
 20
123.987301
 30
0.0
 11
18.810113
 21
123.720600
 31
0.0
  0
LINE
  5
1e5
100
AcDbEntity
  8
text
 62
7
100
AcDbLine
 10
18.810113
 20
123.720600
 30
0.0
 11
18.985092
 21
123.631700
 31
0.0
  0
LINE
  5
1e6
100
AcDbEntity
  8
text
 62
7
100
AcDbLine
 10
18.985092
 20
123.631700
 30
0.0
 11
19.165714
 21
123.631700
 31
0.0
  0
LINE
  5
1e7
100
AcDbEntity
  8
text
 62
7
100
AcDbLine
 10
18.454512
 20
124.876303
 30
0.0
 11
19.075403
 21
124.876303
 31
0.0
  0
LINE
  5
1e8
100
AcDbEntity
  8
text
 62
7
100
AcDbLine
 10
19.696291
 20
125.500016
 30
0.0
 11
19.696291
 21
123.631700
 31
0.0
  0
LINE
  5
1e9
100
AcDbEntity
  8
text
 62
7
100
AcDbLine
 10
19.696291
 20
125.500016
 30
0.0
 11
20.320003
 21
125.500016
 31
0.0
  0
LINE
  5
1ea
100
AcDbEntity
  8
text
 62
7
100
AcDbLine
 10
20.320003
 20
125.500016
 30
0.0
 11
20.588115
 21
125.409705
 31
0.0
  0
LINE
  5
1eb
100
AcDbEntity
  8
text
 62
7
100
AcDbLine
 10
20.588115
 20
125.409705
 30
0.0
 11
20.763094
 21
125.231904
 31
0.0
  0
LINE
  5
1ec
100
AcDbEntity
  8
text
 62
7
100
AcDbLine
 10
20.763094
 20
125.231904
 30
0.0
 11
20.853405
 21
125.054104
 31
0.0
  0
LINE
  5
1ed
100
AcDbEntity
  8
text
 62
7
100
AcDbLine
 10
20.853405
 20
125.054104
 30
0.0
 11
20.943716
 21
124.788814
 31
0.0
  0
LINE
  5
1ee
100
AcDbEntity
  8
text
 62
7
100
AcDbLine
 10
20.943716
 20
124.788814
 30
0.0
 11
20.943716
 21
124.342902
 31
0.0
  0
LINE
  5
1ef
100
AcDbEntity
  8
text
 62
7
100
AcDbLine
 10
20.943716
 20
124.342902
 30
0.0
 11
20.853405
 21
124.077612
 31
0.0
  0
LINE
  5
1f0
100
AcDbEntity
  8
text
 62
7
100
AcDbLine
 10
20.853405
 20
124.077612
 30
0.0
 11
20.763094
 21
123.898401
 31
0.0
  0
LINE
  5
1f1
100
AcDbEntity
  8
text
 62
7
100
AcDbLine
 10
20.763094
 20
123.898401
 30
0.0
 11
20.588115
 21
123.720600
 31
0.0
  0
LINE
  5
1f2
100
AcDbEntity
  8
text
 62
7
100
AcDbLine
 10
20.588115
 20
123.720600
 30
0.0
 11
20.320003
 21
123.631700
 31
0.0
  0
LINE
  5
1f3
100
AcDbEntity
  8
text
 62
7
100
AcDbLine
 10
20.320003
 20
123.631700
 30
0.0
 11
19.696291
 21
123.631700
 31
0.0
  0
LINE
  5
1f4
100
AcDbEntity
  8
text
 62
7
100
AcDbLine
 10
21.477121
 20
125.500016
 30
0.0
 11
21.564611
 21
125.409705
 31
0.0
  0
LINE
  5
1f5
100
AcDbEntity
  8
text
 62
7
100
AcDbLine
 10
21.564611
 20
125.409705
 30
0.0
 11
21.654922
 21
125.500016
 31
0.0
  0
LINE
  5
1f6
100
AcDbEntity
  8
text
 62
7
100
AcDbLine
 10
21.654922
 20
125.500016
 30
0.0
 11
21.564611
 21
125.587505
 31
0.0
  0
LINE
  5
1f7
100
AcDbEntity
  8
text
 62
7
100
AcDbLine
 10
21.564611
 20
125.587505
 30
0.0
 11
21.477121
 21
125.500016
 31
0.0
  0
LINE
  5
1f8
100
AcDbEntity
  8
text
 62
7
100
AcDbLine
 10
21.564611
 20
124.876303
 30
0.0
 11
21.564611
 21
123.631700
 31
0.0
  0
LINE
  5
1f9
100
AcDbEntity
  8
text
 62
7
100
AcDbLine
 10
23.255104
 20
124.876303
 30
0.0
 11
23.255104
 21
123.631700
 31
0.0
  0
LINE
  5
1fa
100
AcDbEntity
  8
text
 62
7
100
AcDbLine
 10
23.255104
 20
124.608192
 30
0.0
 11
23.077304
 21
124.788814
 31
0.0
  0
LINE
  5
1fb
100
AcDbEntity
  8
text
 62
7
100
AcDbLine
 10
23.077304
 20
124.788814
 30
0.0
 11
22.899503
 21
124.876303
 31
0.0
  0
LINE
  5
1fc
100
AcDbEntity
  8
text
 62
7
100
AcDbLine
 10
22.899503
 20
124.876303
 30
0.0
 11
22.631392
 21
124.876303
 31
0.0
  0
LINE
  5
1fd
100
AcDbEntity
  8
text
 62
7
100
AcDbLine
 10
22.631392
 20
124.876303
 30
0.0
 11
22.456413
 21
124.788814
 31
0.0
  0
LINE
  5
1fe
100
AcDbEntity
  8
text
 62
7
100
AcDbLine
 10
22.456413
 20
124.788814
 30
0.0
 11
22.275791
 21
124.608192
 31
0.0
  0
LINE
  5
1ff
100
AcDbEntity
  8
text
 62
7
100
AcDbLine
 10
22.275791
 20
124.608192
 30
0.0
 11
22.188301
 21
124.342902
 31
0.0
  0
LINE
  5
200
100
AcDbEntity
  8
text
 62
7
100
AcDbLine
 10
22.188301
 20
124.342902
 30
0.0
 11
22.188301
 21
124.165101
 31
0.0
  0
LINE
  5
201
100
AcDbEntity
  8
text
 62
7
100
AcDbLine
 10
22.188301
 20
124.165101
 30
0.0
 11
22.275791
 21
123.898401
 31
0.0
  0
LINE
  5
202
100
AcDbEntity
  8
text
 62
7
100
AcDbLine
 10
22.275791
 20
123.898401
 30
0.0
 11
22.456413
 21
123.720600
 31
0.0
  0
LINE
  5
203
100
AcDbEntity
  8
text
 62
7
100
AcDbLine
 10
22.456413
 20
123.720600
 30
0.0
 11
22.631392
 21
123.631700
 31
0.0
  0
LINE
  5
204
100
AcDbEntity
  8
text
 62
7
100
AcDbLine
 10
22.631392
 20
123.631700
 30
0.0
 11
22.899503
 21
123.631700
 31
0.0
  0
LINE
  5
205
100
AcDbEntity
  8
text
 62
7
100
AcDbLine
 10
22.899503
 20
123.631700
 30
0.0
 11
23.077304
 21
123.720600
 31
0.0
  0
LINE
  5
206
100
AcDbEntity
  8
text
 62
7
100
AcDbLine
 10
23.077304
 20
123.720600
 30
0.0
 11
23.255104
 21
123.898401
 31
0.0
  0
LINE
  5
207
100
AcDbEntity
  8
text
 62
7
100
AcDbLine
 10
23.963491
 20
125.500016
 30
0.0
 11
23.963491
 21
123.631700
 31
0.0
  0
LINE
  5
208
100
AcDbEntity
  8
text
 62
7
100
AcDbLine
 10
25.030292
 20
124.876303
 30
0.0
 11
24.855313
 21
124.788814
 31
0.0
  0
LINE
  5
209
100
AcDbEntity
  8
text
 62
7
100
AcDbLine
 10
24.855313
 20
124.788814
 30
0.0
 11
24.674691
 21
124.608192
 31
0.0
  0
LINE
  5
20a
100
AcDbEntity
  8
text
 62
7
100
AcDbLine
 10
24.674691
 20
124.608192
 30
0.0
 11
24.587201
 21
124.342902
 31
0.0
  0
LINE
  5
20b
100
AcDbEntity
  8
text
 62
7
100
AcDbLine
 10
24.587201
 20
124.342902
 30
0.0
 11
24.587201
 21
124.165101
 31
0.0
  0
LINE
  5
20c
100
AcDbEntity
  8
text
 62
7
100
AcDbLine
 10
24.587201
 20
124.165101
 30
0.0
 11
24.674691
 21
123.898401
 31
0.0
  0
LINE
  5
20d
100
AcDbEntity
  8
text
 62
7
100
AcDbLine
 10
24.674691
 20
123.898401
 30
0.0
 11
24.855313
 21
123.720600
 31
0.0
  0
LINE
  5
20e
100
AcDbEntity
  8
text
 62
7
100
AcDbLine
 10
24.855313
 20
123.720600
 30
0.0
 11
25.030292
 21
123.631700
 31
0.0
  0
LINE
  5
20f
100
AcDbEntity
  8
text
 62
7
100
AcDbLine
 10
25.030292
 20
123.631700
 30
0.0
 11
25.298403
 21
123.631700
 31
0.0
  0
LINE
  5
210
100
AcDbEntity
  8
text
 62
7
100
AcDbLine
 10
25.298403
 20
123.631700
 30
0.0
 11
25.476204
 21
123.720600
 31
0.0
  0
LINE
  5
211
100
AcDbEntity
  8
text
 62
7
100
AcDbLine
 10
25.476204
 20
123.720600
 30
0.0
 11
25.654004
 21
123.898401
 31
0.0
  0
LINE
  5
212
100
AcDbEntity
  8
text
 62
7
100
AcDbLine
 10
25.654004
 20
123.898401
 30
0.0
 11
25.741494
 21
124.165101
 31
0.0
  0
LINE
  5
213
100
AcDbEntity
  8
text
 62
7
100
AcDbLine
 10
25.741494
 20
124.165101
 30
0.0
 11
25.741494
 21
124.342902
 31
0.0
  0
LINE
  5
214
100
AcDbEntity
  8
text
 62
7
100
AcDbLine
 10
25.741494
 20
124.342902
 30
0.0
 11
25.654004
 21
124.608192
 31
0.0
  0
LINE
  5
215
100
AcDbEntity
  8
text
 62
7
100
AcDbLine
 10
25.654004
 20
124.608192
 30
0.0
 11
25.476204
 21
124.788814
 31
0.0
  0
LINE
  5
216
100
AcDbEntity
  8
text
 62
7
100
AcDbLine
 10
25.476204
 20
124.788814
 30
0.0
 11
25.298403
 21
124.876303
 31
0.0
  0
LINE
  5
217
100
AcDbEntity
  8
text
 62
7
100
AcDbLine
 10
25.298403
 20
124.876303
 30
0.0
 11
25.030292
 21
124.876303
 31
0.0
  0
LINE
  5
218
100
AcDbEntity
  8
text
 62
7
100
AcDbLine
 10
27.341704
 20
124.876303
 30
0.0
 11
27.341704
 21
123.453900
 31
0.0
  0
LINE
  5
219
100
AcDbEntity
  8
text
 62
7
100
AcDbLine
 10
27.341704
 20
123.453900
 30
0.0
 11
27.254215
 21
123.185788
 31
0.0
  0
LINE
  5
21a
100
AcDbEntity
  8
text
 62
7
100
AcDbLine
 10
27.254215
 20
123.185788
 30
0.0
 11
27.163904
 21
123.098299
 31
0.0
  0
LINE
  5
21b
100
AcDbEntity
  8
text
 62
7
100
AcDbLine
 10
27.163904
 20
123.098299
 30
0.0
 11
26.986103
 21
123.010809
 31
0.0
  0
LINE
  5
21c
100
AcDbEntity
  8
text
 62
7
100
AcDbLine
 10
26.986103
 20
123.010809
 30
0.0
 11
26.717992
 21
123.010809
 31
0.0
  0
LINE
  5
21d
100
AcDbEntity
  8
text
 62
7
100
AcDbLine
 10
26.717992
 20
123.010809
 30
0.0
 11
26.543013
 21
123.098299
 31
0.0
  0
LINE
  5
21e
100
AcDbEntity
  8
text
 62
7
100
AcDbLine
 10
27.341704
 20
124.608192
 30
0.0
 11
27.163904
 21
124.788814
 31
0.0
  0
LINE
  5
21f
100
AcDbEntity
  8
text
 62
7
100
AcDbLine
 10
27.163904
 20
124.788814
 30
0.0
 11
26.986103
 21
124.876303
 31
0.0
  0
LINE
  5
220
100
AcDbEntity
  8
text
 62
7
100
AcDbLine
 10
26.986103
 20
124.876303
 30
0.0
 11
26.717992
 21
124.876303
 31
0.0
  0
LINE
  5
221
100
AcDbEntity
  8
text
 62
7
100
AcDbLine
 10
26.717992
 20
124.876303
 30
0.0
 11
26.543013
 21
124.788814
 31
0.0
  0
LINE
  5
222
100
AcDbEntity
  8
text
 62
7
100
AcDbLine
 10
26.543013
 20
124.788814
 30
0.0
 11
26.362391
 21
124.608192
 31
0.0
  0
LINE
  5
223
100
AcDbEntity
  8
text
 62
7
100
AcDbLine
 10
26.362391
 20
124.608192
 30
0.0
 11
26.274901
 21
124.342902
 31
0.0
  0
LINE
  5
224
100
AcDbEntity
  8
text
 62
7
100
AcDbLine
 10
26.274901
 20
124.342902
 30
0.0
 11
26.274901
 21
124.165101
 31
0.0
  0
LINE
  5
225
100
AcDbEntity
  8
text
 62
7
100
AcDbLine
 10
26.274901
 20
124.165101
 30
0.0
 11
26.362391
 21
123.898401
 31
0.0
  0
LINE
  5
226
100
AcDbEntity
  8
text
 62
7
100
AcDbLine
 10
26.362391
 20
123.898401
 30
0.0
 11
26.543013
 21
123.720600
 31
0.0
  0
LINE
  5
227
100
AcDbEntity
  8
text
 62
7
100
AcDbLine
 10
26.543013
 20
123.720600
 30
0.0
 11
26.717992
 21
123.631700
 31
0.0
  0
LINE
  5
228
100
AcDbEntity
  8
text
 62
7
100
AcDbLine
 10
26.717992
 20
123.631700
 30
0.0
 11
26.986103
 21
123.631700
 31
0.0
  0
LINE
  5
229
100
AcDbEntity
  8
text
 62
7
100
AcDbLine
 10
26.986103
 20
123.631700
 30
0.0
 11
27.163904
 21
123.720600
 31
0.0
  0
LINE
  5
22a
100
AcDbEntity
  8
text
 62
7
100
AcDbLine
 10
27.163904
 20
123.720600
 30
0.0
 11
27.341704
 21
123.898401
 31
0.0
  0
LINE
  5
22b
100
AcDbEntity
  8
text
 62
7
100
AcDbLine
 10
28.941915
 20
124.608192
 30
0.0
 11
28.851604
 21
124.788814
 31
0.0
  0
LINE
  5
22c
100
AcDbEntity
  8
text
 62
7
100
AcDbLine
 10
28.851604
 20
124.788814
 30
0.0
 11
28.586314
 21
124.876303
 31
0.0
  0
LINE
  5
22d
100
AcDbEntity
  8
text
 62
7
100
AcDbLine
 10
28.586314
 20
124.876303
 30
0.0
 11
28.318202
 21
124.876303
 31
0.0
  0
LINE
  5
22e
100
AcDbEntity
  8
text
 62
7
100
AcDbLine
 10
28.318202
 20
124.876303
 30
0.0
 11
28.050091
 21
124.788814
 31
0.0
  0
LINE
  5
22f
100
AcDbEntity
  8
text
 62
7
100
AcDbLine
 10
28.050091
 20
124.788814
 30
0.0
 11
27.962601
 21
124.608192
 31
0.0
  0
LINE
  5
230
100
AcDbEntity
  8
text
 62
7
100
AcDbLine
 10
27.962601
 20
124.608192
 30
0.0
 11
28.050091
 21
124.433213
 31
0.0
  0
LINE
  5
231
100
AcDbEntity
  8
text
 62
7
100
AcDbLine
 10
28.050091
 20
124.433213
 30
0.0
 11
28.230713
 21
124.342902
 31
0.0
  0
LINE
  5
232
100
AcDbEntity
  8
text
 62
7
100
AcDbLine
 10
28.230713
 20
124.342902
 30
0.0
 11
28.673803
 21
124.252591
 31
0.0
  0
LINE
  5
233
100
AcDbEntity
  8
text
 62
7
100
AcDbLine
 10
28.673803
 20
124.252591
 30
0.0
 11
28.851604
 21
124.165101
 31
0.0
  0
LINE
  5
234
100
AcDbEntity
  8
text
 62
7
100
AcDbLine
 10
28.851604
 20
124.165101
 30
0.0
 11
28.941915
 21
123.987301
 31
0.0
  0
LINE
  5
235
100
AcDbEntity
  8
text
 62
7
100
AcDbLine
 10
28.941915
 20
123.987301
 30
0.0
 11
28.941915
 21
123.898401
 31
0.0
  0
LINE
  5
236
100
AcDbEntity
  8
text
 62
7
100
AcDbLine
 10
28.941915
 20
123.898401
 30
0.0
 11
28.851604
 21
123.720600
 31
0.0
  0
LINE
  5
237
100
AcDbEntity
  8
text
 62
7
100
AcDbLine
 10
28.851604
 20
123.720600
 30
0.0
 11
28.586314
 21
123.631700
 31
0.0
  0
LINE
  5
238
100
AcDbEntity
  8
text
 62
7
100
AcDbLine
 10
28.586314
 20
123.631700
 30
0.0
 11
28.318202
 21
123.631700
 31
0.0
  0
LINE
  5
239
100
AcDbEntity
  8
text
 62
7
100
AcDbLine
 10
28.318202
 20
123.631700
 30
0.0
 11
28.050091
 21
123.720600
 31
0.0
  0
LINE
  5
23a
100
AcDbEntity
  8
text
 62
7
100
AcDbLine
 10
28.050091
 20
123.720600
 30
0.0
 11
27.962601
 21
123.898401
 31
0.0
  0
LINE
  5
23b
100
AcDbEntity
  8
text
 62
7
100
AcDbLine
 10
9.072001
 20
121.994416
 30
0.0
 11
9.783203
 21
120.126100
 31
0.0
  0
LINE
  5
23c
100
AcDbEntity
  8
text
 62
7
100
AcDbLine
 10
10.494405
 20
121.994416
 30
0.0
 11
9.783203
 21
120.126100
 31
0.0
  0
LINE
  5
23d
100
AcDbEntity
  8
text
 62
7
100
AcDbLine
 10
12.184916
 20
121.548504
 30
0.0
 11
12.094605
 21
121.726304
 31
0.0
  0
LINE
  5
23e
100
AcDbEntity
  8
text
 62
7
100
AcDbLine
 10
12.094605
 20
121.726304
 30
0.0
 11
11.916804
 21
121.904105
 31
0.0
  0
LINE
  5
23f
100
AcDbEntity
  8
text
 62
7
100
AcDbLine
 10
11.916804
 20
121.904105
 30
0.0
 11
11.739004
 21
121.994416
 31
0.0
  0
LINE
  5
240
100
AcDbEntity
  8
text
 62
7
100
AcDbLine
 10
11.739004
 20
121.994416
 30
0.0
 11
11.383403
 21
121.994416
 31
0.0
  0
LINE
  5
241
100
AcDbEntity
  8
text
 62
7
100
AcDbLine
 10
11.383403
 20
121.994416
 30
0.0
 11
11.205602
 21
121.904105
 31
0.0
  0
LINE
  5
242
100
AcDbEntity
  8
text
 62
7
100
AcDbLine
 10
11.205602
 20
121.904105
 30
0.0
 11
11.027802
 21
121.726304
 31
0.0
  0
LINE
  5
243
100
AcDbEntity
  8
text
 62
7
100
AcDbLine
 10
11.027802
 20
121.726304
 30
0.0
 11
10.937491
 21
121.548504
 31
0.0
  0
LINE
  5
244
100
AcDbEntity
  8
text
 62
7
100
AcDbLine
 10
10.937491
 20
121.548504
 30
0.0
 11
10.850001
 21
121.283214
 31
0.0
  0
LINE
  5
245
100
AcDbEntity
  8
text
 62
7
100
AcDbLine
 10
10.850001
 20
121.283214
 30
0.0
 11
10.850001
 21
120.837302
 31
0.0
  0
LINE
  5
246
100
AcDbEntity
  8
text
 62
7
100
AcDbLine
 10
10.850001
 20
120.837302
 30
0.0
 11
10.937491
 21
120.572012
 31
0.0
  0
LINE
  5
247
100
AcDbEntity
  8
text
 62
7
100
AcDbLine
 10
10.937491
 20
120.572012
 30
0.0
 11
11.027802
 21
120.392801
 31
0.0
  0
LINE
  5
248
100
AcDbEntity
  8
text
 62
7
100
AcDbLine
 10
11.027802
 20
120.392801
 30
0.0
 11
11.205602
 21
120.215000
 31
0.0
  0
LINE
  5
249
100
AcDbEntity
  8
text
 62
7
100
AcDbLine
 10
11.205602
 20
120.215000
 30
0.0
 11
11.383403
 21
120.126100
 31
0.0
  0
LINE
  5
24a
100
AcDbEntity
  8
text
 62
7
100
AcDbLine
 10
11.383403
 20
120.126100
 30
0.0
 11
11.739004
 21
120.126100
 31
0.0
  0
LINE
  5
24b
100
AcDbEntity
  8
text
 62
7
100
AcDbLine
 10
11.739004
 20
120.126100
 30
0.0
 11
11.916804
 21
120.215000
 31
0.0
  0
LINE
  5
24c
100
AcDbEntity
  8
text
 62
7
100
AcDbLine
 10
11.916804
 20
120.215000
 30
0.0
 11
12.094605
 21
120.392801
 31
0.0
  0
LINE
  5
24d
100
AcDbEntity
  8
text
 62
7
100
AcDbLine
 10
12.094605
 20
120.392801
 30
0.0
 11
12.184916
 21
120.572012
 31
0.0
  0
LINE
  5
24e
100
AcDbEntity
  8
text
 62
7
100
AcDbLine
 10
12.805811
 20
121.994416
 30
0.0
 11
12.805811
 21
120.126100
 31
0.0
  0
LINE
  5
24f
100
AcDbEntity
  8
text
 62
7
100
AcDbLine
 10
12.805811
 20
121.994416
 30
0.0
 11
13.962925
 21
121.994416
 31
0.0
  0
LINE
  5
250
100
AcDbEntity
  8
text
 62
7
100
AcDbLine
 10
12.805811
 20
121.102592
 30
0.0
 11
13.517013
 21
121.102592
 31
0.0
  0
LINE
  5
251
100
AcDbEntity
  8
text
 62
7
100
AcDbLine
 10
15.918733
 20
121.994416
 30
0.0
 11
15.207531
 21
120.126100
 31
0.0
  0
LINE
  5
252
100
AcDbEntity
  8
text
 62
7
100
AcDbLine
 10
15.918733
 20
121.994416
 30
0.0
 11
16.629935
 21
120.126100
 31
0.0
  0
LINE
  5
253
100
AcDbEntity
  8
text
 62
7
100
AcDbLine
 10
15.472821
 20
120.746991
 30
0.0
 11
16.364645
 21
120.746991
 31
0.0
  0
LINE
  5
254
100
AcDbEntity
  8
text
 62
7
100
AcDbLine
 10
18.230135
 20
121.726304
 30
0.0
 11
18.052334
 21
121.904105
 31
0.0
  0
LINE
  5
255
100
AcDbEntity
  8
text
 62
7
100
AcDbLine
 10
18.052334
 20
121.904105
 30
0.0
 11
17.784223
 21
121.994416
 31
0.0
  0
LINE
  5
256
100
AcDbEntity
  8
text
 62
7
100
AcDbLine
 10
17.784223
 20
121.994416
 30
0.0
 11
17.428622
 21
121.994416
 31
0.0
  0
LINE
  5
257
100
AcDbEntity
  8
text
 62
7
100
AcDbLine
 10
17.428622
 20
121.994416
 30
0.0
 11
17.163332
 21
121.904105
 31
0.0
  0
LINE
  5
258
100
AcDbEntity
  8
text
 62
7
100
AcDbLine
 10
17.163332
 20
121.904105
 30
0.0
 11
16.985531
 21
121.726304
 31
0.0
  0
LINE
  5
259
100
AcDbEntity
  8
text
 62
7
100
AcDbLine
 10
16.985531
 20
121.726304
 30
0.0
 11
16.985531
 21
121.548504
 31
0.0
  0
LINE
  5
25a
100
AcDbEntity
  8
text
 62
7
100
AcDbLine
 10
16.985531
 20
121.548504
 30
0.0
 11
17.073021
 21
121.370703
 31
0.0
  0
LINE
  5
25b
100
AcDbEntity
  8
text
 62
7
100
AcDbLine
 10
17.073021
 20
121.370703
 30
0.0
 11
17.163332
 21
121.283214
 31
0.0
  0
LINE
  5
25c
100
AcDbEntity
  8
text
 62
7
100
AcDbLine
 10
17.163332
 20
121.283214
 30
0.0
 11
17.341132
 21
121.192903
 31
0.0
  0
LINE
  5
25d
100
AcDbEntity
  8
text
 62
7
100
AcDbLine
 10
17.341132
 20
121.192903
 30
0.0
 11
17.874534
 21
121.015102
 31
0.0
  0
LINE
  5
25e
100
AcDbEntity
  8
text
 62
7
100
AcDbLine
 10
17.874534
 20
121.015102
 30
0.0
 11
18.052334
 21
120.927613
 31
0.0
  0
LINE
  5
25f
100
AcDbEntity
  8
text
 62
7
100
AcDbLine
 10
18.052334
 20
120.927613
 30
0.0
 11
18.139824
 21
120.837302
 31
0.0
  0
LINE
  5
260
100
AcDbEntity
  8
text
 62
7
100
AcDbLine
 10
18.139824
 20
120.837302
 30
0.0
 11
18.230135
 21
120.659501
 31
0.0
  0
LINE
  5
261
100
AcDbEntity
  8
text
 62
7
100
AcDbLine
 10
18.230135
 20
120.659501
 30
0.0
 11
18.230135
 21
120.392801
 31
0.0
  0
LINE
  5
262
100
AcDbEntity
  8
text
 62
7
100
AcDbLine
 10
18.230135
 20
120.392801
 30
0.0
 11
18.052334
 21
120.215000
 31
0.0
  0
LINE
  5
263
100
AcDbEntity
  8
text
 62
7
100
AcDbLine
 10
18.052334
 20
120.215000
 30
0.0
 11
17.784223
 21
120.126100
 31
0.0
  0
LINE
  5
264
100
AcDbEntity
  8
text
 62
7
100
AcDbLine
 10
17.784223
 20
120.126100
 30
0.0
 11
17.428622
 21
120.126100
 31
0.0
  0
LINE
  5
265
100
AcDbEntity
  8
text
 62
7
100
AcDbLine
 10
17.428622
 20
120.126100
 30
0.0
 11
17.163332
 21
120.215000
 31
0.0
  0
LINE
  5
266
100
AcDbEntity
  8
text
 62
7
100
AcDbLine
 10
17.163332
 20
120.215000
 30
0.0
 11
16.985531
 21
120.392801
 31
0.0
  0
LINE
  5
267
100
AcDbEntity
  8
text
 62
7
100
AcDbLine
 10
18.941342
 20
121.994416
 30
0.0
 11
19.917834
 21
121.994416
 31
0.0
  0
LINE
  5
268
100
AcDbEntity
  8
text
 62
7
100
AcDbLine
 10
19.917834
 20
121.994416
 30
0.0
 11
19.387254
 21
121.283214
 31
0.0
  0
LINE
  5
269
100
AcDbEntity
  8
text
 62
7
100
AcDbLine
 10
19.387254
 20
121.283214
 30
0.0
 11
19.652544
 21
121.283214
 31
0.0
  0
LINE
  5
26a
100
AcDbEntity
  8
text
 62
7
100
AcDbLine
 10
19.652544
 20
121.283214
 30
0.0
 11
19.830344
 21
121.192903
 31
0.0
  0
LINE
  5
26b
100
AcDbEntity
  8
text
 62
7
100
AcDbLine
 10
19.830344
 20
121.192903
 30
0.0
 11
19.917834
 21
121.102592
 31
0.0
  0
LINE
  5
26c
100
AcDbEntity
  8
text
 62
7
100
AcDbLine
 10
19.917834
 20
121.102592
 30
0.0
 11
20.008145
 21
120.837302
 31
0.0
  0
LINE
  5
26d
100
AcDbEntity
  8
text
 62
7
100
AcDbLine
 10
20.008145
 20
120.837302
 30
0.0
 11
20.008145
 21
120.659501
 31
0.0
  0
LINE
  5
26e
100
AcDbEntity
  8
text
 62
7
100
AcDbLine
 10
20.008145
 20
120.659501
 30
0.0
 11
19.917834
 21
120.392801
 31
0.0
  0
LINE
  5
26f
100
AcDbEntity
  8
text
 62
7
100
AcDbLine
 10
19.917834
 20
120.392801
 30
0.0
 11
19.742855
 21
120.215000
 31
0.0
  0
LINE
  5
270
100
AcDbEntity
  8
text
 62
7
100
AcDbLine
 10
19.742855
 20
120.215000
 30
0.0
 11
19.474743
 21
120.126100
 31
0.0
  0
LINE
  5
271
100
AcDbEntity
  8
text
 62
7
100
AcDbLine
 10
19.474743
 20
120.126100
 30
0.0
 11
19.206632
 21
120.126100
 31
0.0
  0
LINE
  5
272
100
AcDbEntity
  8
text
 62
7
100
AcDbLine
 10
19.206632
 20
120.126100
 30
0.0
 11
18.941342
 21
120.215000
 31
0.0
  0
LINE
  5
273
100
AcDbEntity
  8
text
 62
7
100
AcDbLine
 10
18.941342
 20
120.215000
 30
0.0
 11
18.851031
 21
120.303900
 31
0.0
  0
LINE
  5
274
100
AcDbEntity
  8
text
 62
7
100
AcDbLine
 10
18.851031
 20
120.303900
 30
0.0
 11
18.763541
 21
120.481701
 31
0.0
  0
LINE
  5
275
100
AcDbEntity
  8
text
 62
7
100
AcDbLine
 10
20.719302
 20
121.994416
 30
0.0
 11
21.695794
 21
121.994416
 31
0.0
  0
LINE
  5
276
100
AcDbEntity
  8
text
 62
7
100
AcDbLine
 10
21.695794
 20
121.994416
 30
0.0
 11
21.165214
 21
121.283214
 31
0.0
  0
LINE
  5
277
100
AcDbEntity
  8
text
 62
7
100
AcDbLine
 10
21.165214
 20
121.283214
 30
0.0
 11
21.430504
 21
121.283214
 31
0.0
  0
LINE
  5
278
100
AcDbEntity
  8
text
 62
7
100
AcDbLine
 10
21.430504
 20
121.283214
 30
0.0
 11
21.608304
 21
121.192903
 31
0.0
  0
LINE
  5
279
100
AcDbEntity
  8
text
 62
7
100
AcDbLine
 10
21.608304
 20
121.192903
 30
0.0
 11
21.695794
 21
121.102592
 31
0.0
  0
LINE
  5
27a
100
AcDbEntity
  8
text
 62
7
100
AcDbLine
 10
21.695794
 20
121.102592
 30
0.0
 11
21.786105
 21
120.837302
 31
0.0
  0
LINE
  5
27b
100
AcDbEntity
  8
text
 62
7
100
AcDbLine
 10
21.786105
 20
120.837302
 30
0.0
 11
21.786105
 21
120.659501
 31
0.0
  0
LINE
  5
27c
100
AcDbEntity
  8
text
 62
7
100
AcDbLine
 10
21.786105
 20
120.659501
 30
0.0
 11
21.695794
 21
120.392801
 31
0.0
  0
LINE
  5
27d
100
AcDbEntity
  8
text
 62
7
100
AcDbLine
 10
21.695794
 20
120.392801
 30
0.0
 11
21.520815
 21
120.215000
 31
0.0
  0
LINE
  5
27e
100
AcDbEntity
  8
text
 62
7
100
AcDbLine
 10
21.520815
 20
120.215000
 30
0.0
 11
21.252703
 21
120.126100
 31
0.0
  0
LINE
  5
27f
100
AcDbEntity
  8
text
 62
7
100
AcDbLine
 10
21.252703
 20
120.126100
 30
0.0
 11
20.984592
 21
120.126100
 31
0.0
  0
LINE
  5
280
100
AcDbEntity
  8
text
 62
7
100
AcDbLine
 10
20.984592
 20
120.126100
 30
0.0
 11
20.719302
 21
120.215000
 31
0.0
  0
LINE
  5
281
100
AcDbEntity
  8
text
 62
7
100
AcDbLine
 10
20.719302
 20
120.215000
 30
0.0
 11
20.628991
 21
120.303900
 31
0.0
  0
LINE
  5
282
100
AcDbEntity
  8
text
 62
7
100
AcDbLine
 10
20.628991
 20
120.303900
 30
0.0
 11
20.541501
 21
120.481701
 31
0.0
  0
LINE
  5
283
100
AcDbEntity
  8
text
 62
7
100
AcDbLine
 10
22.406991
 20
121.548504
 30
0.0
 11
22.406991
 21
121.638815
 31
0.0
  0
LINE
  5
284
100
AcDbEntity
  8
text
 62
7
100
AcDbLine
 10
22.406991
 20
121.638815
 30
0.0
 11
22.497302
 21
121.813794
 31
0.0
  0
LINE
  5
285
100
AcDbEntity
  8
text
 62
7
100
AcDbLine
 10
22.497302
 20
121.813794
 30
0.0
 11
22.587613
 21
121.904105
 31
0.0
  0
LINE
  5
286
100
AcDbEntity
  8
text
 62
7
100
AcDbLine
 10
22.587613
 20
121.904105
 30
0.0
 11
22.762592
 21
121.994416
 31
0.0
  0
LINE
  5
287
100
AcDbEntity
  8
text
 62
7
100
AcDbLine
 10
22.762592
 20
121.994416
 30
0.0
 11
23.118193
 21
121.994416
 31
0.0
  0
LINE
  5
288
100
AcDbEntity
  8
text
 62
7
100
AcDbLine
 10
23.118193
 20
121.994416
 30
0.0
 11
23.298815
 21
121.904105
 31
0.0
  0
LINE
  5
289
100
AcDbEntity
  8
text
 62
7
100
AcDbLine
 10
23.298815
 20
121.904105
 30
0.0
 11
23.386304
 21
121.813794
 31
0.0
  0
LINE
  5
28a
100
AcDbEntity
  8
text
 62
7
100
AcDbLine
 10
23.386304
 20
121.813794
 30
0.0
 11
23.473794
 21
121.638815
 31
0.0
  0
LINE
  5
28b
100
AcDbEntity
  8
text
 62
7
100
AcDbLine
 10
23.473794
 20
121.638815
 30
0.0
 11
23.473794
 21
121.458193
 31
0.0
  0
LINE
  5
28c
100
AcDbEntity
  8
text
 62
7
100
AcDbLine
 10
23.473794
 20
121.458193
 30
0.0
 11
23.386304
 21
121.283214
 31
0.0
  0
LINE
  5
28d
100
AcDbEntity
  8
text
 62
7
100
AcDbLine
 10
23.386304
 20
121.283214
 30
0.0
 11
23.208504
 21
121.015102
 31
0.0
  0
LINE
  5
28e
100
AcDbEntity
  8
text
 62
7
100
AcDbLine
 10
23.208504
 20
121.015102
 30
0.0
 11
22.319501
 21
120.126100
 31
0.0
  0
LINE
  5
28f
100
AcDbEntity
  8
text
 62
7
100
AcDbLine
 10
22.319501
 20
120.126100
 30
0.0
 11
23.564105
 21
120.126100
 31
0.0
  0
LINE
  5
290
100
AcDbEntity
  8
text
 62
7
100
AcDbLine
 10
24.631003
 20
121.994416
 30
0.0
 11
24.365713
 21
121.904105
 31
0.0
  0
LINE
  5
291
100
AcDbEntity
  8
text
 62
7
100
AcDbLine
 10
24.365713
 20
121.904105
 30
0.0
 11
24.185091
 21
121.638815
 31
0.0
  0
LINE
  5
292
100
AcDbEntity
  8
text
 62
7
100
AcDbLine
 10
24.185091
 20
121.638815
 30
0.0
 11
24.097601
 21
121.192903
 31
0.0
  0
LINE
  5
293
100
AcDbEntity
  8
text
 62
7
100
AcDbLine
 10
24.097601
 20
121.192903
 30
0.0
 11
24.097601
 21
120.927613
 31
0.0
  0
LINE
  5
294
100
AcDbEntity
  8
text
 62
7
100
AcDbLine
 10
24.097601
 20
120.927613
 30
0.0
 11
24.185091
 21
120.481701
 31
0.0
  0
LINE
  5
295
100
AcDbEntity
  8
text
 62
7
100
AcDbLine
 10
24.185091
 20
120.481701
 30
0.0
 11
24.365713
 21
120.215000
 31
0.0
  0
LINE
  5
296
100
AcDbEntity
  8
text
 62
7
100
AcDbLine
 10
24.365713
 20
120.215000
 30
0.0
 11
24.631003
 21
120.126100
 31
0.0
  0
LINE
  5
297
100
AcDbEntity
  8
text
 62
7
100
AcDbLine
 10
24.631003
 20
120.126100
 30
0.0
 11
24.808803
 21
120.126100
 31
0.0
  0
LINE
  5
298
100
AcDbEntity
  8
text
 62
7
100
AcDbLine
 10
24.808803
 20
120.126100
 30
0.0
 11
25.076915
 21
120.215000
 31
0.0
  0
LINE
  5
299
100
AcDbEntity
  8
text
 62
7
100
AcDbLine
 10
25.076915
 20
120.215000
 30
0.0
 11
25.251894
 21
120.481701
 31
0.0
  0
LINE
  5
29a
100
AcDbEntity
  8
text
 62
7
100
AcDbLine
 10
25.251894
 20
120.481701
 30
0.0
 11
25.342205
 21
120.927613
 31
0.0
  0
LINE
  5
29b
100
AcDbEntity
  8
text
 62
7
100
AcDbLine
 10
25.342205
 20
120.927613
 30
0.0
 11
25.342205
 21
121.192903
 31
0.0
  0
LINE
  5
29c
100
AcDbEntity
  8
text
 62
7
100
AcDbLine
 10
25.342205
 20
121.192903
 30
0.0
 11
25.251894
 21
121.638815
 31
0.0
  0
LINE
  5
29d
100
AcDbEntity
  8
text
 62
7
100
AcDbLine
 10
25.251894
 20
121.638815
 30
0.0
 11
25.076915
 21
121.904105
 31
0.0
  0
LINE
  5
29e
100
AcDbEntity
  8
text
 62
7
100
AcDbLine
 10
25.076915
 20
121.904105
 30
0.0
 11
24.808803
 21
121.994416
 31
0.0
  0
LINE
  5
29f
100
AcDbEntity
  8
text
 62
7
100
AcDbLine
 10
24.808803
 20
121.994416
 30
0.0
 11
24.631003
 21
121.994416
 31
0.0
  0
LINE
  5
2a0
100
AcDbEntity
  8
text
 62
7
100
AcDbLine
 10
27.029891
 20
121.994416
 30
0.0
 11
27.029891
 21
120.126100
 31
0.0
  0
LINE
  5
2a1
100
AcDbEntity
  8
text
 62
7
100
AcDbLine
 10
27.029891
 20
120.126100
 30
0.0
 11
28.096694
 21
120.126100
 31
0.0
  0
LINE
  5
2a2
100
AcDbEntity
  8
text
 62
7
100
AcDbLine
 10
28.542591
 20
121.994416
 30
0.0
 11
28.542591
 21
120.126100
 31
0.0
  0
LINE
  5
2a3
100
AcDbEntity
  8
text
 62
7
100
AcDbLine
 10
28.542591
 20
121.994416
 30
0.0
 11
29.344104
 21
121.994416
 31
0.0
  0
LINE
  5
2a4
100
AcDbEntity
  8
text
 62
7
100
AcDbLine
 10
29.344104
 20
121.994416
 30
0.0
 11
29.609394
 21
121.904105
 31
0.0
  0
LINE
  5
2a5
100
AcDbEntity
  8
text
 62
7
100
AcDbLine
 10
29.609394
 20
121.904105
 30
0.0
 11
29.699705
 21
121.813794
 31
0.0
  0
LINE
  5
2a6
100
AcDbEntity
  8
text
 62
7
100
AcDbLine
 10
29.699705
 20
121.813794
 30
0.0
 11
29.790016
 21
121.638815
 31
0.0
  0
LINE
  5
2a7
100
AcDbEntity
  8
text
 62
7
100
AcDbLine
 10
29.790016
 20
121.638815
 30
0.0
 11
29.790016
 21
121.370703
 31
0.0
  0
LINE
  5
2a8
100
AcDbEntity
  8
text
 62
7
100
AcDbLine
 10
29.790016
 20
121.370703
 30
0.0
 11
29.699705
 21
121.192903
 31
0.0
  0
LINE
  5
2a9
100
AcDbEntity
  8
text
 62
7
100
AcDbLine
 10
29.699705
 20
121.192903
 30
0.0
 11
29.609394
 21
121.102592
 31
0.0
  0
LINE
  5
2aa
100
AcDbEntity
  8
text
 62
7
100
AcDbLine
 10
29.609394
 20
121.102592
 30
0.0
 11
29.344104
 21
121.015102
 31
0.0
  0
LINE
  5
2ab
100
AcDbEntity
  8
text
 62
7
100
AcDbLine
 10
29.344104
 20
121.015102
 30
0.0
 11
28.542591
 21
121.015102
 31
0.0
  0
LINE
  5
2ac
100
AcDbEntity
  8
text
 62
7
100
AcDbLine
 10
30.410891
 20
121.994416
 30
0.0
 11
30.410891
 21
120.126100
 31
0.0
  0
LINE
  5
2ad
100
AcDbEntity
  8
text
 62
7
100
AcDbLine
 10
30.410891
 20
121.994416
 30
0.0
 11
31.568005
 21
121.994416
 31
0.0
  0
LINE
  5
2ae
100
AcDbEntity
  8
text
 62
7
100
AcDbLine
 10
30.410891
 20
121.102592
 30
0.0
 11
31.122093
 21
121.102592
 31
0.0
  0
LINE
  5
2af
100
AcDbEntity
  8
text
 62
7
100
AcDbLine
 10
16.408316
 20
111.375404
 30
0.0
 11
16.318005
 21
111.553204
 31
0.0
  0
LINE
  5
2b0
100
AcDbEntity
  8
text
 62
7
100
AcDbLine
 10
16.318005
 20
111.553204
 30
0.0
 11
16.140204
 21
111.731005
 31
0.0
  0
LINE
  5
2b1
100
AcDbEntity
  8
text
 62
7
100
AcDbLine
 10
16.140204
 20
111.731005
 30
0.0
 11
15.962404
 21
111.821316
 31
0.0
  0
LINE
  5
2b2
100
AcDbEntity
  8
text
 62
7
100
AcDbLine
 10
15.962404
 20
111.821316
 30
0.0
 11
15.606803
 21
111.821316
 31
0.0
  0
LINE
  5
2b3
100
AcDbEntity
  8
text
 62
7
100
AcDbLine
 10
15.606803
 20
111.821316
 30
0.0
 11
15.429002
 21
111.731005
 31
0.0
  0
LINE
  5
2b4
100
AcDbEntity
  8
text
 62
7
100
AcDbLine
 10
15.429002
 20
111.731005
 30
0.0
 11
15.251202
 21
111.553204
 31
0.0
  0
LINE
  5
2b5
100
AcDbEntity
  8
text
 62
7
100
AcDbLine
 10
15.251202
 20
111.553204
 30
0.0
 11
15.160891
 21
111.375404
 31
0.0
  0
LINE
  5
2b6
100
AcDbEntity
  8
text
 62
7
100
AcDbLine
 10
15.160891
 20
111.375404
 30
0.0
 11
15.073401
 21
111.110114
 31
0.0
  0
LINE
  5
2b7
100
AcDbEntity
  8
text
 62
7
100
AcDbLine
 10
15.073401
 20
111.110114
 30
0.0
 11
15.073401
 21
110.664202
 31
0.0
  0
LINE
  5
2b8
100
AcDbEntity
  8
text
 62
7
100
AcDbLine
 10
15.073401
 20
110.664202
 30
0.0
 11
15.160891
 21
110.398912
 31
0.0
  0
LINE
  5
2b9
100
AcDbEntity
  8
text
 62
7
100
AcDbLine
 10
15.160891
 20
110.398912
 30
0.0
 11
15.251202
 21
110.219701
 31
0.0
  0
LINE
  5
2ba
100
AcDbEntity
  8
text
 62
7
100
AcDbLine
 10
15.251202
 20
110.219701
 30
0.0
 11
15.429002
 21
110.041900
 31
0.0
  0
LINE
  5
2bb
100
AcDbEntity
  8
text
 62
7
100
AcDbLine
 10
15.429002
 20
110.041900
 30
0.0
 11
15.606803
 21
109.953000
 31
0.0
  0
LINE
  5
2bc
100
AcDbEntity
  8
text
 62
7
100
AcDbLine
 10
15.606803
 20
109.953000
 30
0.0
 11
15.962404
 21
109.953000
 31
0.0
  0
LINE
  5
2bd
100
AcDbEntity
  8
text
 62
7
100
AcDbLine
 10
15.962404
 20
109.953000
 30
0.0
 11
16.140204
 21
110.041900
 31
0.0
  0
LINE
  5
2be
100
AcDbEntity
  8
text
 62
7
100
AcDbLine
 10
16.140204
 20
110.041900
 30
0.0
 11
16.318005
 21
110.219701
 31
0.0
  0
LINE
  5
2bf
100
AcDbEntity
  8
text
 62
7
100
AcDbLine
 10
16.318005
 20
110.219701
 30
0.0
 11
16.408316
 21
110.398912
 31
0.0
  0
LINE
  5
2c0
100
AcDbEntity
  8
text
 62
7
100
AcDbLine
 10
17.029211
 20
111.821316
 30
0.0
 11
17.029211
 21
110.486401
 31
0.0
  0
LINE
  5
2c1
100
AcDbEntity
  8
text
 62
7
100
AcDbLine
 10
17.029211
 20
110.486401
 30
0.0
 11
17.119522
 21
110.219701
 31
0.0
  0
LINE
  5
2c2
100
AcDbEntity
  8
text
 62
7
100
AcDbLine
 10
17.119522
 20
110.219701
 30
0.0
 11
17.297322
 21
110.041900
 31
0.0
  0
LINE
  5
2c3
100
AcDbEntity
  8
text
 62
7
100
AcDbLine
 10
17.297322
 20
110.041900
 30
0.0
 11
17.565434
 21
109.953000
 31
0.0
  0
LINE
  5
2c4
100
AcDbEntity
  8
text
 62
7
100
AcDbLine
 10
17.565434
 20
109.953000
 30
0.0
 11
17.740413
 21
109.953000
 31
0.0
  0
LINE
  5
2c5
100
AcDbEntity
  8
text
 62
7
100
AcDbLine
 10
17.740413
 20
109.953000
 30
0.0
 11
18.008524
 21
110.041900
 31
0.0
  0
LINE
  5
2c6
100
AcDbEntity
  8
text
 62
7
100
AcDbLine
 10
18.008524
 20
110.041900
 30
0.0
 11
18.186325
 21
110.219701
 31
0.0
  0
LINE
  5
2c7
100
AcDbEntity
  8
text
 62
7
100
AcDbLine
 10
18.186325
 20
110.219701
 30
0.0
 11
18.276636
 21
110.486401
 31
0.0
  0
LINE
  5
2c8
100
AcDbEntity
  8
text
 62
7
100
AcDbLine
 10
18.276636
 20
110.486401
 30
0.0
 11
18.276636
 21
111.821316
 31
0.0
  0
LINE
  5
2c9
100
AcDbEntity
  8
text
 62
7
100
AcDbLine
 10
19.340612
 20
111.821316
 30
0.0
 11
19.340612
 21
109.953000
 31
0.0
  0
LINE
  5
2ca
100
AcDbEntity
  8
text
 62
7
100
AcDbLine
 10
18.719721
 20
111.821316
 30
0.0
 11
19.964324
 21
111.821316
 31
0.0
  0
LINE
  5
2cb
100
AcDbEntity
  8
text
 62
7
100
AcDbLine
 10
20.853333
 20
111.821316
 30
0.0
 11
20.675532
 21
111.731005
 31
0.0
  0
LINE
  5
2cc
100
AcDbEntity
  8
text
 62
7
100
AcDbLine
 10
20.675532
 20
111.731005
 30
0.0
 11
20.497732
 21
111.553204
 31
0.0
  0
LINE
  5
2cd
100
AcDbEntity
  8
text
 62
7
100
AcDbLine
 10
20.497732
 20
111.553204
 30
0.0
 11
20.407421
 21
111.375404
 31
0.0
  0
LINE
  5
2ce
100
AcDbEntity
  8
text
 62
7
100
AcDbLine
 10
20.407421
 20
111.375404
 30
0.0
 11
20.319931
 21
111.110114
 31
0.0
  0
LINE
  5
2cf
100
AcDbEntity
  8
text
 62
7
100
AcDbLine
 10
20.319931
 20
111.110114
 30
0.0
 11
20.319931
 21
110.664202
 31
0.0
  0
LINE
  5
2d0
100
AcDbEntity
  8
text
 62
7
100
AcDbLine
 10
20.319931
 20
110.664202
 30
0.0
 11
20.407421
 21
110.398912
 31
0.0
  0
LINE
  5
2d1
100
AcDbEntity
  8
text
 62
7
100
AcDbLine
 10
20.407421
 20
110.398912
 30
0.0
 11
20.497732
 21
110.219701
 31
0.0
  0
LINE
  5
2d2
100
AcDbEntity
  8
text
 62
7
100
AcDbLine
 10
20.497732
 20
110.219701
 30
0.0
 11
20.675532
 21
110.041900
 31
0.0
  0
LINE
  5
2d3
100
AcDbEntity
  8
text
 62
7
100
AcDbLine
 10
20.675532
 20
110.041900
 30
0.0
 11
20.853333
 21
109.953000
 31
0.0
  0
LINE
  5
2d4
100
AcDbEntity
  8
text
 62
7
100
AcDbLine
 10
20.853333
 20
109.953000
 30
0.0
 11
21.208934
 21
109.953000
 31
0.0
  0
LINE
  5
2d5
100
AcDbEntity
  8
text
 62
7
100
AcDbLine
 10
21.208934
 20
109.953000
 30
0.0
 11
21.386734
 21
110.041900
 31
0.0
  0
LINE
  5
2d6
100
AcDbEntity
  8
text
 62
7
100
AcDbLine
 10
21.386734
 20
110.041900
 30
0.0
 11
21.564535
 21
110.219701
 31
0.0
  0
LINE
  5
2d7
100
AcDbEntity
  8
text
 62
7
100
AcDbLine
 10
21.564535
 20
110.219701
 30
0.0
 11
21.654846
 21
110.398912
 31
0.0
  0
LINE
  5
2d8
100
AcDbEntity
  8
text
 62
7
100
AcDbLine
 10
21.654846
 20
110.398912
 30
0.0
 11
21.742335
 21
110.664202
 31
0.0
  0
LINE
  5
2d9
100
AcDbEntity
  8
text
 62
7
100
AcDbLine
 10
21.742335
 20
110.664202
 30
0.0
 11
21.742335
 21
111.110114
 31
0.0
  0
LINE
  5
2da
100
AcDbEntity
  8
text
 62
7
100
AcDbLine
 10
21.742335
 20
111.110114
 30
0.0
 11
21.654846
 21
111.375404
 31
0.0
  0
LINE
  5
2db
100
AcDbEntity
  8
text
 62
7
100
AcDbLine
 10
21.654846
 20
111.375404
 30
0.0
 11
21.564535
 21
111.553204
 31
0.0
  0
LINE
  5
2dc
100
AcDbEntity
  8
text
 62
7
100
AcDbLine
 10
21.564535
 20
111.553204
 30
0.0
 11
21.386734
 21
111.731005
 31
0.0
  0
LINE
  5
2dd
100
AcDbEntity
  8
text
 62
7
100
AcDbLine
 10
21.386734
 20
111.731005
 30
0.0
 11
21.208934
 21
111.821316
 31
0.0
  0
LINE
  5
2de
100
AcDbEntity
  8
text
 62
7
100
AcDbLine
 10
21.208934
 20
111.821316
 30
0.0
 11
20.853333
 21
111.821316
 31
0.0
  0
LINE
  5
2df
100
AcDbEntity
  8
text
 62
7
100
AcDbLine
 10
22.363221
 20
111.821316
 30
0.0
 11
22.363221
 21
109.953000
 31
0.0
  0
LINE
  5
2e0
100
AcDbEntity
  8
text
 62
7
100
AcDbLine
 10
22.363221
 20
111.821316
 30
0.0
 11
23.520335
 21
111.821316
 31
0.0
  0
LINE
  5
2e1
100
AcDbEntity
  8
text
 62
7
100
AcDbLine
 10
22.363221
 20
110.929492
 30
0.0
 11
23.074423
 21
110.929492
 31
0.0
  0
LINE
  5
2e2
100
AcDbEntity
  8
text
 62
7
100
AcDbLine
 10
23.963431
 20
111.821316
 30
0.0
 11
23.963431
 21
109.953000
 31
0.0
  0
LINE
  5
2e3
100
AcDbEntity
  8
text
 62
7
100
AcDbLine
 10
23.963431
 20
111.821316
 30
0.0
 11
25.120545
 21
111.821316
 31
0.0
  0
LINE
  5
2e4
100
AcDbEntity
  8
text
 62
7
100
AcDbLine
 10
23.963431
 20
110.929492
 30
0.0
 11
24.674633
 21
110.929492
 31
0.0
  0
LINE
  5
2e5
100
AcDbEntity
  8
text
 62
7
100
AcDbLine
 10
12.406391
 20
81.787576
 30
0.0
 11
12.406391
 21
79.919260
 31
0.0
  0
LINE
  5
2e6
100
AcDbEntity
  8
text
 62
7
100
AcDbLine
 10
12.406391
 20
81.787576
 30
0.0
 11
13.207904
 21
81.787576
 31
0.0
  0
LINE
  5
2e7
100
AcDbEntity
  8
text
 62
7
100
AcDbLine
 10
13.207904
 20
81.787576
 30
0.0
 11
13.473194
 21
81.697265
 31
0.0
  0
LINE
  5
2e8
100
AcDbEntity
  8
text
 62
7
100
AcDbLine
 10
13.473194
 20
81.697265
 30
0.0
 11
13.563505
 21
81.606954
 31
0.0
  0
LINE
  5
2e9
100
AcDbEntity
  8
text
 62
7
100
AcDbLine
 10
13.563505
 20
81.606954
 30
0.0
 11
13.653816
 21
81.431975
 31
0.0
  0
LINE
  5
2ea
100
AcDbEntity
  8
text
 62
7
100
AcDbLine
 10
13.653816
 20
81.431975
 30
0.0
 11
13.653816
 21
81.251353
 31
0.0
  0
LINE
  5
2eb
100
AcDbEntity
  8
text
 62
7
100
AcDbLine
 10
13.653816
 20
81.251353
 30
0.0
 11
13.563505
 21
81.076374
 31
0.0
  0
LINE
  5
2ec
100
AcDbEntity
  8
text
 62
7
100
AcDbLine
 10
13.563505
 20
81.076374
 30
0.0
 11
13.473194
 21
80.986063
 31
0.0
  0
LINE
  5
2ed
100
AcDbEntity
  8
text
 62
7
100
AcDbLine
 10
13.473194
 20
80.986063
 30
0.0
 11
13.207904
 21
80.895752
 31
0.0
  0
LINE
  5
2ee
100
AcDbEntity
  8
text
 62
7
100
AcDbLine
 10
13.207904
 20
80.895752
 30
0.0
 11
12.406391
 21
80.895752
 31
0.0
  0
LINE
  5
2ef
100
AcDbEntity
  8
text
 62
7
100
AcDbLine
 10
13.030103
 20
80.895752
 30
0.0
 11
13.653816
 21
79.919260
 31
0.0
  0
LINE
  5
2f0
100
AcDbEntity
  8
text
 62
7
100
AcDbLine
 10
14.274711
 20
81.787576
 30
0.0
 11
14.274711
 21
79.919260
 31
0.0
  0
LINE
  5
2f1
100
AcDbEntity
  8
text
 62
7
100
AcDbLine
 10
14.274711
 20
81.787576
 30
0.0
 11
15.431825
 21
81.787576
 31
0.0
  0
LINE
  5
2f2
100
AcDbEntity
  8
text
 62
7
100
AcDbLine
 10
14.274711
 20
80.895752
 30
0.0
 11
14.985913
 21
80.895752
 31
0.0
  0
LINE
  5
2f3
100
AcDbEntity
  8
text
 62
7
100
AcDbLine
 10
14.274711
 20
79.919260
 30
0.0
 11
15.431825
 21
79.919260
 31
0.0
  0
LINE
  5
2f4
100
AcDbEntity
  8
text
 62
7
100
AcDbLine
 10
17.119515
 20
81.519464
 30
0.0
 11
16.941714
 21
81.697265
 31
0.0
  0
LINE
  5
2f5
100
AcDbEntity
  8
text
 62
7
100
AcDbLine
 10
16.941714
 20
81.697265
 30
0.0
 11
16.673603
 21
81.787576
 31
0.0
  0
LINE
  5
2f6
100
AcDbEntity
  8
text
 62
7
100
AcDbLine
 10
16.673603
 20
81.787576
 30
0.0
 11
16.318002
 21
81.787576
 31
0.0
  0
LINE
  5
2f7
100
AcDbEntity
  8
text
 62
7
100
AcDbLine
 10
16.318002
 20
81.787576
 30
0.0
 11
16.052712
 21
81.697265
 31
0.0
  0
LINE
  5
2f8
100
AcDbEntity
  8
text
 62
7
100
AcDbLine
 10
16.052712
 20
81.697265
 30
0.0
 11
15.874911
 21
81.519464
 31
0.0
  0
LINE
  5
2f9
100
AcDbEntity
  8
text
 62
7
100
AcDbLine
 10
15.874911
 20
81.519464
 30
0.0
 11
15.874911
 21
81.341664
 31
0.0
  0
LINE
  5
2fa
100
AcDbEntity
  8
text
 62
7
100
AcDbLine
 10
15.874911
 20
81.341664
 30
0.0
 11
15.962401
 21
81.163863
 31
0.0
  0
LINE
  5
2fb
100
AcDbEntity
  8
text
 62
7
100
AcDbLine
 10
15.962401
 20
81.163863
 30
0.0
 11
16.052712
 21
81.076374
 31
0.0
  0
LINE
  5
2fc
100
AcDbEntity
  8
text
 62
7
100
AcDbLine
 10
16.052712
 20
81.076374
 30
0.0
 11
16.230512
 21
80.986063
 31
0.0
  0
LINE
  5
2fd
100
AcDbEntity
  8
text
 62
7
100
AcDbLine
 10
16.230512
 20
80.986063
 30
0.0
 11
16.763914
 21
80.808262
 31
0.0
  0
LINE
  5
2fe
100
AcDbEntity
  8
text
 62
7
100
AcDbLine
 10
16.763914
 20
80.808262
 30
0.0
 11
16.941714
 21
80.720773
 31
0.0
  0
LINE
  5
2ff
100
AcDbEntity
  8
text
 62
7
100
AcDbLine
 10
16.941714
 20
80.720773
 30
0.0
 11
17.029204
 21
80.630462
 31
0.0
  0
LINE
  5
300
100
AcDbEntity
  8
text
 62
7
100
AcDbLine
 10
17.029204
 20
80.630462
 30
0.0
 11
17.119515
 21
80.452661
 31
0.0
  0
LINE
  5
301
100
AcDbEntity
  8
text
 62
7
100
AcDbLine
 10
17.119515
 20
80.452661
 30
0.0
 11
17.119515
 21
80.185961
 31
0.0
  0
LINE
  5
302
100
AcDbEntity
  8
text
 62
7
100
AcDbLine
 10
17.119515
 20
80.185961
 30
0.0
 11
16.941714
 21
80.008160
 31
0.0
  0
LINE
  5
303
100
AcDbEntity
  8
text
 62
7
100
AcDbLine
 10
16.941714
 20
80.008160
 30
0.0
 11
16.673603
 21
79.919260
 31
0.0
  0
LINE
  5
304
100
AcDbEntity
  8
text
 62
7
100
AcDbLine
 10
16.673603
 20
79.919260
 30
0.0
 11
16.318002
 21
79.919260
 31
0.0
  0
LINE
  5
305
100
AcDbEntity
  8
text
 62
7
100
AcDbLine
 10
16.318002
 20
79.919260
 30
0.0
 11
16.052712
 21
80.008160
 31
0.0
  0
LINE
  5
306
100
AcDbEntity
  8
text
 62
7
100
AcDbLine
 10
16.052712
 20
80.008160
 30
0.0
 11
15.874911
 21
80.185961
 31
0.0
  0
LINE
  5
307
100
AcDbEntity
  8
text
 62
7
100
AcDbLine
 10
18.186313
 20
81.787576
 30
0.0
 11
18.008512
 21
81.697265
 31
0.0
  0
LINE
  5
308
100
AcDbEntity
  8
text
 62
7
100
AcDbLine
 10
18.008512
 20
81.697265
 30
0.0
 11
17.830712
 21
81.519464
 31
0.0
  0
LINE
  5
309
100
AcDbEntity
  8
text
 62
7
100
AcDbLine
 10
17.830712
 20
81.519464
 30
0.0
 11
17.740401
 21
81.341664
 31
0.0
  0
LINE
  5
30a
100
AcDbEntity
  8
text
 62
7
100
AcDbLine
 10
17.740401
 20
81.341664
 30
0.0
 11
17.652911
 21
81.076374
 31
0.0
  0
LINE
  5
30b
100
AcDbEntity
  8
text
 62
7
100
AcDbLine
 10
17.652911
 20
81.076374
 30
0.0
 11
17.652911
 21
80.630462
 31
0.0
  0
LINE
  5
30c
100
AcDbEntity
  8
text
 62
7
100
AcDbLine
 10
17.652911
 20
80.630462
 30
0.0
 11
17.740401
 21
80.365172
 31
0.0
  0
LINE
  5
30d
100
AcDbEntity
  8
text
 62
7
100
AcDbLine
 10
17.740401
 20
80.365172
 30
0.0
 11
17.830712
 21
80.185961
 31
0.0
  0
LINE
  5
30e
100
AcDbEntity
  8
text
 62
7
100
AcDbLine
 10
17.830712
 20
80.185961
 30
0.0
 11
18.008512
 21
80.008160
 31
0.0
  0
LINE
  5
30f
100
AcDbEntity
  8
text
 62
7
100
AcDbLine
 10
18.008512
 20
80.008160
 30
0.0
 11
18.186313
 21
79.919260
 31
0.0
  0
LINE
  5
310
100
AcDbEntity
  8
text
 62
7
100
AcDbLine
 10
18.186313
 20
79.919260
 30
0.0
 11
18.541914
 21
79.919260
 31
0.0
  0
LINE
  5
311
100
AcDbEntity
  8
text
 62
7
100
AcDbLine
 10
18.541914
 20
79.919260
 30
0.0
 11
18.719714
 21
80.008160
 31
0.0
  0
LINE
  5
312
100
AcDbEntity
  8
text
 62
7
100
AcDbLine
 10
18.719714
 20
80.008160
 30
0.0
 11
18.897515
 21
80.185961
 31
0.0
  0
LINE
  5
313
100
AcDbEntity
  8
text
 62
7
100
AcDbLine
 10
18.897515
 20
80.185961
 30
0.0
 11
18.987826
 21
80.365172
 31
0.0
  0
LINE
  5
314
100
AcDbEntity
  8
text
 62
7
100
AcDbLine
 10
18.987826
 20
80.365172
 30
0.0
 11
19.075315
 21
80.630462
 31
0.0
  0
LINE
  5
315
100
AcDbEntity
  8
text
 62
7
100
AcDbLine
 10
19.075315
 20
80.630462
 30
0.0
 11
19.075315
 21
81.076374
 31
0.0
  0
LINE
  5
316
100
AcDbEntity
  8
text
 62
7
100
AcDbLine
 10
19.075315
 20
81.076374
 30
0.0
 11
18.987826
 21
81.341664
 31
0.0
  0
LINE
  5
317
100
AcDbEntity
  8
text
 62
7
100
AcDbLine
 10
18.987826
 20
81.341664
 30
0.0
 11
18.897515
 21
81.519464
 31
0.0
  0
LINE
  5
318
100
AcDbEntity
  8
text
 62
7
100
AcDbLine
 10
18.897515
 20
81.519464
 30
0.0
 11
18.719714
 21
81.697265
 31
0.0
  0
LINE
  5
319
100
AcDbEntity
  8
text
 62
7
100
AcDbLine
 10
18.719714
 20
81.697265
 30
0.0
 11
18.541914
 21
81.787576
 31
0.0
  0
LINE
  5
31a
100
AcDbEntity
  8
text
 62
7
100
AcDbLine
 10
18.541914
 20
81.787576
 30
0.0
 11
18.186313
 21
81.787576
 31
0.0
  0
LINE
  5
31b
100
AcDbEntity
  8
text
 62
7
100
AcDbLine
 10
19.696211
 20
81.787576
 30
0.0
 11
19.696211
 21
79.919260
 31
0.0
  0
LINE
  5
31c
100
AcDbEntity
  8
text
 62
7
100
AcDbLine
 10
19.696211
 20
81.787576
 30
0.0
 11
20.943636
 21
79.919260
 31
0.0
  0
LINE
  5
31d
100
AcDbEntity
  8
text
 62
7
100
AcDbLine
 10
20.943636
 20
81.787576
 30
0.0
 11
20.943636
 21
79.919260
 31
0.0
  0
LINE
  5
31e
100
AcDbEntity
  8
text
 62
7
100
AcDbLine
 10
22.097933
 20
81.787576
 30
0.0
 11
21.386731
 21
79.919260
 31
0.0
  0
LINE
  5
31f
100
AcDbEntity
  8
text
 62
7
100
AcDbLine
 10
22.097933
 20
81.787576
 30
0.0
 11
22.809135
 21
79.919260
 31
0.0
  0
LINE
  5
320
100
AcDbEntity
  8
text
 62
7
100
AcDbLine
 10
21.652021
 20
80.540151
 30
0.0
 11
22.543845
 21
80.540151
 31
0.0
  0
LINE
  5
321
100
AcDbEntity
  8
text
 62
7
100
AcDbLine
 10
23.252191
 20
81.787576
 30
0.0
 11
23.252191
 21
79.919260
 31
0.0
  0
LINE
  5
322
100
AcDbEntity
  8
text
 62
7
100
AcDbLine
 10
23.252191
 20
81.787576
 30
0.0
 11
24.499616
 21
79.919260
 31
0.0
  0
LINE
  5
323
100
AcDbEntity
  8
text
 62
7
100
AcDbLine
 10
24.499616
 20
81.787576
 30
0.0
 11
24.499616
 21
79.919260
 31
0.0
  0
LINE
  5
324
100
AcDbEntity
  8
text
 62
7
100
AcDbLine
 10
26.455416
 20
81.341664
 30
0.0
 11
26.365105
 21
81.519464
 31
0.0
  0
LINE
  5
325
100
AcDbEntity
  8
text
 62
7
100
AcDbLine
 10
26.365105
 20
81.519464
 30
0.0
 11
26.187304
 21
81.697265
 31
0.0
  0
LINE
  5
326
100
AcDbEntity
  8
text
 62
7
100
AcDbLine
 10
26.187304
 20
81.697265
 30
0.0
 11
26.009504
 21
81.787576
 31
0.0
  0
LINE
  5
327
100
AcDbEntity
  8
text
 62
7
100
AcDbLine
 10
26.009504
 20
81.787576
 30
0.0
 11
25.653903
 21
81.787576
 31
0.0
  0
LINE
  5
328
100
AcDbEntity
  8
text
 62
7
100
AcDbLine
 10
25.653903
 20
81.787576
 30
0.0
 11
25.476102
 21
81.697265
 31
0.0
  0
LINE
  5
329
100
AcDbEntity
  8
text
 62
7
100
AcDbLine
 10
25.476102
 20
81.697265
 30
0.0
 11
25.298302
 21
81.519464
 31
0.0
  0
LINE
  5
32a
100
AcDbEntity
  8
text
 62
7
100
AcDbLine
 10
25.298302
 20
81.519464
 30
0.0
 11
25.207991
 21
81.341664
 31
0.0
  0
LINE
  5
32b
100
AcDbEntity
  8
text
 62
7
100
AcDbLine
 10
25.207991
 20
81.341664
 30
0.0
 11
25.120501
 21
81.076374
 31
0.0
  0
LINE
  5
32c
100
AcDbEntity
  8
text
 62
7
100
AcDbLine
 10
25.120501
 20
81.076374
 30
0.0
 11
25.120501
 21
80.630462
 31
0.0
  0
LINE
  5
32d
100
AcDbEntity
  8
text
 62
7
100
AcDbLine
 10
25.120501
 20
80.630462
 30
0.0
 11
25.207991
 21
80.365172
 31
0.0
  0
LINE
  5
32e
100
AcDbEntity
  8
text
 62
7
100
AcDbLine
 10
25.207991
 20
80.365172
 30
0.0
 11
25.298302
 21
80.185961
 31
0.0
  0
LINE
  5
32f
100
AcDbEntity
  8
text
 62
7
100
AcDbLine
 10
25.298302
 20
80.185961
 30
0.0
 11
25.476102
 21
80.008160
 31
0.0
  0
LINE
  5
330
100
AcDbEntity
  8
text
 62
7
100
AcDbLine
 10
25.476102
 20
80.008160
 30
0.0
 11
25.653903
 21
79.919260
 31
0.0
  0
LINE
  5
331
100
AcDbEntity
  8
text
 62
7
100
AcDbLine
 10
25.653903
 20
79.919260
 30
0.0
 11
26.009504
 21
79.919260
 31
0.0
  0
LINE
  5
332
100
AcDbEntity
  8
text
 62
7
100
AcDbLine
 10
26.009504
 20
79.919260
 30
0.0
 11
26.187304
 21
80.008160
 31
0.0
  0
LINE
  5
333
100
AcDbEntity
  8
text
 62
7
100
AcDbLine
 10
26.187304
 20
80.008160
 30
0.0
 11
26.365105
 21
80.185961
 31
0.0
  0
LINE
  5
334
100
AcDbEntity
  8
text
 62
7
100
AcDbLine
 10
26.365105
 20
80.185961
 30
0.0
 11
26.455416
 21
80.365172
 31
0.0
  0
LINE
  5
335
100
AcDbEntity
  8
text
 62
7
100
AcDbLine
 10
27.076391
 20
81.787576
 30
0.0
 11
27.076391
 21
79.919260
 31
0.0
  0
LINE
  5
336
100
AcDbEntity
  8
text
 62
7
100
AcDbLine
 10
27.076391
 20
81.787576
 30
0.0
 11
28.233505
 21
81.787576
 31
0.0
  0
LINE
  5
337
100
AcDbEntity
  8
text
 62
7
100
AcDbLine
 10
27.076391
 20
80.895752
 30
0.0
 11
27.787593
 21
80.895752
 31
0.0
  0
LINE
  5
338
100
AcDbEntity
  8
text
 62
7
100
AcDbLine
 10
27.076391
 20
79.919260
 30
0.0
 11
28.233505
 21
79.919260
 31
0.0
  0
LINE
  5
339
100
AcDbEntity
  8
text
 62
7
100
AcDbLine
 10
6.372491
 20
28.496616
 30
0.0
 11
6.372491
 21
26.628300
 31
0.0
  0
LINE
  5
33a
100
AcDbEntity
  8
text
 62
7
100
AcDbLine
 10
7.083693
 20
28.496616
 30
0.0
 11
7.083693
 21
26.628300
 31
0.0
  0
LINE
  5
33b
100
AcDbEntity
  8
text
 62
7
100
AcDbLine
 10
7.083693
 20
28.496616
 30
0.0
 11
8.331118
 21
26.628300
 31
0.0
  0
LINE
  5
33c
100
AcDbEntity
  8
text
 62
7
100
AcDbLine
 10
8.331118
 20
28.496616
 30
0.0
 11
8.331118
 21
26.628300
 31
0.0
  0
LINE
  5
33d
100
AcDbEntity
  8
text
 62
7
100
AcDbLine
 10
31.332203
 20
28.496616
 30
0.0
 11
31.154402
 21
28.406305
 31
0.0
  0
LINE
  5
33e
100
AcDbEntity
  8
text
 62
7
100
AcDbLine
 10
31.154402
 20
28.406305
 30
0.0
 11
30.976602
 21
28.228504
 31
0.0
  0
LINE
  5
33f
100
AcDbEntity
  8
text
 62
7
100
AcDbLine
 10
30.976602
 20
28.228504
 30
0.0
 11
30.886291
 21
28.050704
 31
0.0
  0
LINE
  5
340
100
AcDbEntity
  8
text
 62
7
100
AcDbLine
 10
30.886291
 20
28.050704
 30
0.0
 11
30.798801
 21
27.785414
 31
0.0
  0
LINE
  5
341
100
AcDbEntity
  8
text
 62
7
100
AcDbLine
 10
30.798801
 20
27.785414
 30
0.0
 11
30.798801
 21
27.339502
 31
0.0
  0
LINE
  5
342
100
AcDbEntity
  8
text
 62
7
100
AcDbLine
 10
30.798801
 20
27.339502
 30
0.0
 11
30.886291
 21
27.074212
 31
0.0
  0
LINE
  5
343
100
AcDbEntity
  8
text
 62
7
100
AcDbLine
 10
30.886291
 20
27.074212
 30
0.0
 11
30.976602
 21
26.895001
 31
0.0
  0
LINE
  5
344
100
AcDbEntity
  8
text
 62
7
100
AcDbLine
 10
30.976602
 20
26.895001
 30
0.0
 11
31.154402
 21
26.717200
 31
0.0
  0
LINE
  5
345
100
AcDbEntity
  8
text
 62
7
100
AcDbLine
 10
31.154402
 20
26.717200
 30
0.0
 11
31.332203
 21
26.628300
 31
0.0
  0
LINE
  5
346
100
AcDbEntity
  8
text
 62
7
100
AcDbLine
 10
31.332203
 20
26.628300
 30
0.0
 11
31.687804
 21
26.628300
 31
0.0
  0
LINE
  5
347
100
AcDbEntity
  8
text
 62
7
100
AcDbLine
 10
31.687804
 20
26.628300
 30
0.0
 11
31.865604
 21
26.717200
 31
0.0
  0
LINE
  5
348
100
AcDbEntity
  8
text
 62
7
100
AcDbLine
 10
31.865604
 20
26.717200
 30
0.0
 11
32.043405
 21
26.895001
 31
0.0
  0
LINE
  5
349
100
AcDbEntity
  8
text
 62
7
100
AcDbLine
 10
32.043405
 20
26.895001
 30
0.0
 11
32.133716
 21
27.074212
 31
0.0
  0
LINE
  5
34a
100
AcDbEntity
  8
text
 62
7
100
AcDbLine
 10
32.133716
 20
27.074212
 30
0.0
 11
32.221205
 21
27.339502
 31
0.0
  0
LINE
  5
34b
100
AcDbEntity
  8
text
 62
7
100
AcDbLine
 10
32.221205
 20
27.339502
 30
0.0
 11
32.221205
 21
27.785414
 31
0.0
  0
LINE
  5
34c
100
AcDbEntity
  8
text
 62
7
100
AcDbLine
 10
32.221205
 20
27.785414
 30
0.0
 11
32.133716
 21
28.050704
 31
0.0
  0
LINE
  5
34d
100
AcDbEntity
  8
text
 62
7
100
AcDbLine
 10
32.133716
 20
28.050704
 30
0.0
 11
32.043405
 21
28.228504
 31
0.0
  0
LINE
  5
34e
100
AcDbEntity
  8
text
 62
7
100
AcDbLine
 10
32.043405
 20
28.228504
 30
0.0
 11
31.865604
 21
28.406305
 31
0.0
  0
LINE
  5
34f
100
AcDbEntity
  8
text
 62
7
100
AcDbLine
 10
31.865604
 20
28.406305
 30
0.0
 11
31.687804
 21
28.496616
 31
0.0
  0
LINE
  5
350
100
AcDbEntity
  8
text
 62
7
100
AcDbLine
 10
31.687804
 20
28.496616
 30
0.0
 11
31.332203
 21
28.496616
 31
0.0
  0
LINE
  5
351
100
AcDbEntity
  8
text
 62
7
100
AcDbLine
 10
32.842101
 20
28.496616
 30
0.0
 11
32.842101
 21
27.161701
 31
0.0
  0
LINE
  5
352
100
AcDbEntity
  8
text
 62
7
100
AcDbLine
 10
32.842101
 20
27.161701
 30
0.0
 11
32.932412
 21
26.895001
 31
0.0
  0
LINE
  5
353
100
AcDbEntity
  8
text
 62
7
100
AcDbLine
 10
32.932412
 20
26.895001
 30
0.0
 11
33.110212
 21
26.717200
 31
0.0
  0
LINE
  5
354
100
AcDbEntity
  8
text
 62
7
100
AcDbLine
 10
33.110212
 20
26.717200
 30
0.0
 11
33.378324
 21
26.628300
 31
0.0
  0
LINE
  5
355
100
AcDbEntity
  8
text
 62
7
100
AcDbLine
 10
33.378324
 20
26.628300
 30
0.0
 11
33.553303
 21
26.628300
 31
0.0
  0
LINE
  5
356
100
AcDbEntity
  8
text
 62
7
100
AcDbLine
 10
33.553303
 20
26.628300
 30
0.0
 11
33.821414
 21
26.717200
 31
0.0
  0
LINE
  5
357
100
AcDbEntity
  8
text
 62
7
100
AcDbLine
 10
33.821414
 20
26.717200
 30
0.0
 11
33.999215
 21
26.895001
 31
0.0
  0
LINE
  5
358
100
AcDbEntity
  8
text
 62
7
100
AcDbLine
 10
33.999215
 20
26.895001
 30
0.0
 11
34.089526
 21
27.161701
 31
0.0
  0
LINE
  5
359
100
AcDbEntity
  8
text
 62
7
100
AcDbLine
 10
34.089526
 20
27.161701
 30
0.0
 11
34.089526
 21
28.496616
 31
0.0
  0
LINE
  5
35a
100
AcDbEntity
  8
text
 62
7
100
AcDbLine
 10
35.153502
 20
28.496616
 30
0.0
 11
35.153502
 21
26.628300
 31
0.0
  0
LINE
  5
35b
100
AcDbEntity
  8
text
 62
7
100
AcDbLine
 10
34.532611
 20
28.496616
 30
0.0
 11
35.777214
 21
28.496616
 31
0.0
  0
LINE
  5
35c
100
AcDbEntity
  8
logo
 62
7
100
AcDbLine
 10
17.673201
 20
7.844070
 30
0.0
 11
17.894174
 21
7.733586
 31
0.0
  0
LINE
  5
35d
100
AcDbEntity
  8
logo
 62
7
100
AcDbLine
 10
17.894174
 20
7.733586
 30
0.0
 11
17.967831
 21
7.623101
 31
0.0
  0
LINE
  5
35e
100
AcDbEntity
  8
logo
 62
7
100
AcDbLine
 10
17.967831
 20
7.623101
 30
0.0
 11
18.041489
 21
7.402133
 31
0.0
  0
LINE
  5
35f
100
AcDbEntity
  8
logo
 62
7
100
AcDbLine
 10
18.041489
 20
7.402133
 30
0.0
 11
18.041489
 21
7.070680
 31
0.0
  0
LINE
  5
360
100
AcDbEntity
  8
logo
 62
7
100
AcDbLine
 10
18.041489
 20
7.070680
 30
0.0
 11
17.967831
 21
6.849711
 31
0.0
  0
LINE
  5
361
100
AcDbEntity
  8
logo
 62
7
100
AcDbLine
 10
17.967831
 20
6.849711
 30
0.0
 11
17.894174
 21
6.739228
 31
0.0
  0
LINE
  5
362
100
AcDbEntity
  8
logo
 62
7
100
AcDbLine
 10
17.894174
 20
6.739228
 30
0.0
 11
17.746858
 21
6.628743
 31
0.0
  0
LINE
  5
363
100
AcDbEntity
  8
logo
 62
7
100
AcDbLine
 10
17.746858
 20
6.628743
 30
0.0
 11
17.157613
 21
6.628743
 31
0.0
  0
LINE
  5
364
100
AcDbEntity
  8
logo
 62
7
100
AcDbLine
 10
17.157613
 20
6.628743
 30
0.0
 11
17.157613
 21
8.948913
 31
0.0
  0
LINE
  5
365
100
AcDbEntity
  8
logo
 62
7
100
AcDbLine
 10
17.157613
 20
8.948913
 30
0.0
 11
17.673201
 21
8.948913
 31
0.0
  0
LINE
  5
366
100
AcDbEntity
  8
logo
 62
7
100
AcDbLine
 10
17.673201
 20
8.948913
 30
0.0
 11
17.820516
 21
8.838428
 31
0.0
  0
LINE
  5
367
100
AcDbEntity
  8
logo
 62
7
100
AcDbLine
 10
17.820516
 20
8.838428
 30
0.0
 11
17.894174
 21
8.727945
 31
0.0
  0
LINE
  5
368
100
AcDbEntity
  8
logo
 62
7
100
AcDbLine
 10
17.894174
 20
8.727945
 30
0.0
 11
17.967831
 21
8.506976
 31
0.0
  0
LINE
  5
369
100
AcDbEntity
  8
logo
 62
7
100
AcDbLine
 10
17.967831
 20
8.506976
 30
0.0
 11
17.967831
 21
8.286008
 31
0.0
  0
LINE
  5
36a
100
AcDbEntity
  8
logo
 62
7
100
AcDbLine
 10
17.967831
 20
8.286008
 30
0.0
 11
17.894174
 21
8.065038
 31
0.0
  0
LINE
  5
36b
100
AcDbEntity
  8
logo
 62
7
100
AcDbLine
 10
17.894174
 20
8.065038
 30
0.0
 11
17.820516
 21
7.954555
 31
0.0
  0
LINE
  5
36c
100
AcDbEntity
  8
logo
 62
7
100
AcDbLine
 10
17.820516
 20
7.954555
 30
0.0
 11
17.673201
 21
7.844070
 31
0.0
  0
LINE
  5
36d
100
AcDbEntity
  8
logo
 62
7
100
AcDbLine
 10
17.673201
 20
7.844070
 30
0.0
 11
17.157613
 21
7.844070
 31
0.0
  0
LINE
  5
36e
100
AcDbEntity
  8
logo
 62
7
100
AcDbLine
 10
19.440954
 20
6.628743
 30
0.0
 11
18.704393
 21
6.628743
 31
0.0
  0
LINE
  5
36f
100
AcDbEntity
  8
logo
 62
7
100
AcDbLine
 10
18.704393
 20
6.628743
 30
0.0
 11
18.704393
 21
8.948913
 31
0.0
  0
LINE
  5
370
100
AcDbEntity
  8
logo
 62
7
100
AcDbLine
 10
19.956557
 20
7.844070
 30
0.0
 11
20.472145
 21
7.844070
 31
0.0
  0
LINE
  5
371
100
AcDbEntity
  8
logo
 62
7
100
AcDbLine
 10
20.693118
 20
6.628743
 30
0.0
 11
19.956557
 21
6.628743
 31
0.0
  0
LINE
  5
372
100
AcDbEntity
  8
logo
 62
7
100
AcDbLine
 10
19.956557
 20
6.628743
 30
0.0
 11
19.956557
 21
8.948913
 31
0.0
  0
LINE
  5
373
100
AcDbEntity
  8
logo
 62
7
100
AcDbLine
 10
19.956557
 20
8.948913
 30
0.0
 11
20.693118
 21
8.948913
 31
0.0
  0
LINE
  5
374
100
AcDbEntity
  8
logo
 62
7
100
AcDbLine
 10
21.356022
 20
7.844070
 30
0.0
 11
21.871610
 21
7.844070
 31
0.0
  0
LINE
  5
375
100
AcDbEntity
  8
logo
 62
7
100
AcDbLine
 10
22.092583
 20
6.628743
 30
0.0
 11
21.356022
 21
6.628743
 31
0.0
  0
LINE
  5
376
100
AcDbEntity
  8
logo
 62
7
100
AcDbLine
 10
21.356022
 20
6.628743
 30
0.0
 11
21.356022
 21
8.948913
 31
0.0
  0
LINE
  5
377
100
AcDbEntity
  8
logo
 62
7
100
AcDbLine
 10
21.356022
 20
8.948913
 30
0.0
 11
22.092583
 21
8.948913
 31
0.0
  0
LINE
  5
378
100
AcDbEntity
  8
logo
 62
7
100
AcDbLine
 10
22.755487
 20
6.628743
 30
0.0
 11
22.755487
 21
8.948913
 31
0.0
  0
LINE
  5
379
100
AcDbEntity
  8
logo
 62
7
100
AcDbLine
 10
22.755487
 20
8.948913
 30
0.0
 11
23.344733
 21
8.948913
 31
0.0
  0
LINE
  5
37a
100
AcDbEntity
  8
logo
 62
7
100
AcDbLine
 10
23.344733
 20
8.948913
 30
0.0
 11
23.492048
 21
8.838428
 31
0.0
  0
LINE
  5
37b
100
AcDbEntity
  8
logo
 62
7
100
AcDbLine
 10
23.492048
 20
8.838428
 30
0.0
 11
23.565705
 21
8.727945
 31
0.0
  0
LINE
  5
37c
100
AcDbEntity
  8
logo
 62
7
100
AcDbLine
 10
23.565705
 20
8.727945
 30
0.0
 11
23.639363
 21
8.506976
 31
0.0
  0
LINE
  5
37d
100
AcDbEntity
  8
logo
 62
7
100
AcDbLine
 10
23.639363
 20
8.506976
 30
0.0
 11
23.639363
 21
8.175523
 31
0.0
  0
LINE
  5
37e
100
AcDbEntity
  8
logo
 62
7
100
AcDbLine
 10
23.639363
 20
8.175523
 30
0.0
 11
23.565705
 21
7.954555
 31
0.0
  0
LINE
  5
37f
100
AcDbEntity
  8
logo
 62
7
100
AcDbLine
 10
23.565705
 20
7.954555
 30
0.0
 11
23.492048
 21
7.844070
 31
0.0
  0
LINE
  5
380
100
AcDbEntity
  8
logo
 62
7
100
AcDbLine
 10
23.492048
 20
7.844070
 30
0.0
 11
23.344733
 21
7.733586
 31
0.0
  0
LINE
  5
381
100
AcDbEntity
  8
logo
 62
7
100
AcDbLine
 10
23.344733
 20
7.733586
 30
0.0
 11
22.755487
 21
7.733586
 31
0.0
  0
LINE
  5
382
100
AcDbEntity
  8
logo
 62
7
100
AcDbLine
 10
17.452243
 20
4.905188
 30
0.0
 11
17.673201
 21
4.794704
 31
0.0
  0
LINE
  5
383
100
AcDbEntity
  8
logo
 62
7
100
AcDbLine
 10
17.673201
 20
4.794704
 30
0.0
 11
17.746858
 21
4.684219
 31
0.0
  0
LINE
  5
384
100
AcDbEntity
  8
logo
 62
7
100
AcDbLine
 10
17.746858
 20
4.684219
 30
0.0
 11
17.820516
 21
4.463251
 31
0.0
  0
LINE
  5
385
100
AcDbEntity
  8
logo
 62
7
100
AcDbLine
 10
17.820516
 20
4.463251
 30
0.0
 11
17.820516
 21
4.131798
 31
0.0
  0
LINE
  5
386
100
AcDbEntity
  8
logo
 62
7
100
AcDbLine
 10
17.820516
 20
4.131798
 30
0.0
 11
17.746858
 21
3.910829
 31
0.0
  0
LINE
  5
387
100
AcDbEntity
  8
logo
 62
7
100
AcDbLine
 10
17.746858
 20
3.910829
 30
0.0
 11
17.673201
 21
3.800346
 31
0.0
  0
LINE
  5
388
100
AcDbEntity
  8
logo
 62
7
100
AcDbLine
 10
17.673201
 20
3.800346
 30
0.0
 11
17.525901
 21
3.689861
 31
0.0
  0
LINE
  5
389
100
AcDbEntity
  8
logo
 62
7
100
AcDbLine
 10
17.525901
 20
3.689861
 30
0.0
 11
16.936640
 21
3.689861
 31
0.0
  0
LINE
  5
38a
100
AcDbEntity
  8
logo
 62
7
100
AcDbLine
 10
16.936640
 20
3.689861
 30
0.0
 11
16.936640
 21
6.010031
 31
0.0
  0
LINE
  5
38b
100
AcDbEntity
  8
logo
 62
7
100
AcDbLine
 10
16.936640
 20
6.010031
 30
0.0
 11
17.452243
 21
6.010031
 31
0.0
  0
LINE
  5
38c
100
AcDbEntity
  8
logo
 62
7
100
AcDbLine
 10
17.452243
 20
6.010031
 30
0.0
 11
17.599558
 21
5.899546
 31
0.0
  0
LINE
  5
38d
100
AcDbEntity
  8
logo
 62
7
100
AcDbLine
 10
17.599558
 20
5.899546
 30
0.0
 11
17.673201
 21
5.789063
 31
0.0
  0
LINE
  5
38e
100
AcDbEntity
  8
logo
 62
7
100
AcDbLine
 10
17.673201
 20
5.789063
 30
0.0
 11
17.746858
 21
5.568094
 31
0.0
  0
LINE
  5
38f
100
AcDbEntity
  8
logo
 62
7
100
AcDbLine
 10
17.746858
 20
5.568094
 30
0.0
 11
17.746858
 21
5.347126
 31
0.0
  0
LINE
  5
390
100
AcDbEntity
  8
logo
 62
7
100
AcDbLine
 10
17.746858
 20
5.347126
 30
0.0
 11
17.673201
 21
5.126156
 31
0.0
  0
LINE
  5
391
100
AcDbEntity
  8
logo
 62
7
100
AcDbLine
 10
17.673201
 20
5.126156
 30
0.0
 11
17.599558
 21
5.015673
 31
0.0
  0
LINE
  5
392
100
AcDbEntity
  8
logo
 62
7
100
AcDbLine
 10
17.599558
 20
5.015673
 30
0.0
 11
17.452243
 21
4.905188
 31
0.0
  0
LINE
  5
393
100
AcDbEntity
  8
logo
 62
7
100
AcDbLine
 10
17.452243
 20
4.905188
 30
0.0
 11
16.936640
 21
4.905188
 31
0.0
  0
LINE
  5
394
100
AcDbEntity
  8
logo
 62
7
100
AcDbLine
 10
19.219981
 20
3.689861
 30
0.0
 11
18.483420
 21
3.689861
 31
0.0
  0
LINE
  5
395
100
AcDbEntity
  8
logo
 62
7
100
AcDbLine
 10
18.483420
 20
3.689861
 30
0.0
 11
18.483420
 21
6.010031
 31
0.0
  0
LINE
  5
396
100
AcDbEntity
  8
logo
 62
7
100
AcDbLine
 10
20.030200
 20
6.010031
 30
0.0
 11
20.324830
 21
6.010031
 31
0.0
  0
LINE
  5
397
100
AcDbEntity
  8
logo
 62
7
100
AcDbLine
 10
20.324830
 20
6.010031
 30
0.0
 11
20.472145
 21
5.899546
 31
0.0
  0
LINE
  5
398
100
AcDbEntity
  8
logo
 62
7
100
AcDbLine
 10
20.472145
 20
5.899546
 30
0.0
 11
20.619461
 21
5.678578
 31
0.0
  0
LINE
  5
399
100
AcDbEntity
  8
logo
 62
7
100
AcDbLine
 10
20.619461
 20
5.678578
 30
0.0
 11
20.693118
 21
5.236641
 31
0.0
  0
LINE
  5
39a
100
AcDbEntity
  8
logo
 62
7
100
AcDbLine
 10
20.693118
 20
5.236641
 30
0.0
 11
20.693118
 21
4.463251
 31
0.0
  0
LINE
  5
39b
100
AcDbEntity
  8
logo
 62
7
100
AcDbLine
 10
20.693118
 20
4.463251
 30
0.0
 11
20.619461
 21
4.021314
 31
0.0
  0
LINE
  5
39c
100
AcDbEntity
  8
logo
 62
7
100
AcDbLine
 10
20.619461
 20
4.021314
 30
0.0
 11
20.472145
 21
3.800346
 31
0.0
  0
LINE
  5
39d
100
AcDbEntity
  8
logo
 62
7
100
AcDbLine
 10
20.472145
 20
3.800346
 30
0.0
 11
20.324830
 21
3.689861
 31
0.0
  0
LINE
  5
39e
100
AcDbEntity
  8
logo
 62
7
100
AcDbLine
 10
20.324830
 20
3.689861
 30
0.0
 11
20.030200
 21
3.689861
 31
0.0
  0
LINE
  5
39f
100
AcDbEntity
  8
logo
 62
7
100
AcDbLine
 10
20.030200
 20
3.689861
 30
0.0
 11
19.882900
 21
3.800346
 31
0.0
  0
LINE
  5
3a0
100
AcDbEntity
  8
logo
 62
7
100
AcDbLine
 10
19.882900
 20
3.800346
 30
0.0
 11
19.735584
 21
4.021314
 31
0.0
  0
LINE
  5
3a1
100
AcDbEntity
  8
logo
 62
7
100
AcDbLine
 10
19.735584
 20
4.021314
 30
0.0
 11
19.661927
 21
4.463251
 31
0.0
  0
LINE
  5
3a2
100
AcDbEntity
  8
logo
 62
7
100
AcDbLine
 10
19.661927
 20
4.463251
 30
0.0
 11
19.661927
 21
5.236641
 31
0.0
  0
LINE
  5
3a3
100
AcDbEntity
  8
logo
 62
7
100
AcDbLine
 10
19.661927
 20
5.236641
 30
0.0
 11
19.735584
 21
5.678578
 31
0.0
  0
LINE
  5
3a4
100
AcDbEntity
  8
logo
 62
7
100
AcDbLine
 10
19.735584
 20
5.678578
 30
0.0
 11
19.882900
 21
5.899546
 31
0.0
  0
LINE
  5
3a5
100
AcDbEntity
  8
logo
 62
7
100
AcDbLine
 10
19.882900
 20
5.899546
 30
0.0
 11
20.030200
 21
6.010031
 31
0.0
  0
LINE
  5
3a6
100
AcDbEntity
  8
logo
 62
7
100
AcDbLine
 10
21.650637
 20
6.010031
 30
0.0
 11
21.945268
 21
6.010031
 31
0.0
  0
LINE
  5
3a7
100
AcDbEntity
  8
logo
 62
7
100
AcDbLine
 10
21.945268
 20
6.010031
 30
0.0
 11
22.092583
 21
5.899546
 31
0.0
  0
LINE
  5
3a8
100
AcDbEntity
  8
logo
 62
7
100
AcDbLine
 10
22.092583
 20
5.899546
 30
0.0
 11
22.239898
 21
5.678578
 31
0.0
  0
LINE
  5
3a9
100
AcDbEntity
  8
logo
 62
7
100
AcDbLine
 10
22.239898
 20
5.678578
 30
0.0
 11
22.313541
 21
5.236641
 31
0.0
  0
LINE
  5
3aa
100
AcDbEntity
  8
logo
 62
7
100
AcDbLine
 10
22.313541
 20
5.236641
 30
0.0
 11
22.313541
 21
4.463251
 31
0.0
  0
LINE
  5
3ab
100
AcDbEntity
  8
logo
 62
7
100
AcDbLine
 10
22.313541
 20
4.463251
 30
0.0
 11
22.239898
 21
4.021314
 31
0.0
  0
LINE
  5
3ac
100
AcDbEntity
  8
logo
 62
7
100
AcDbLine
 10
22.239898
 20
4.021314
 30
0.0
 11
22.092583
 21
3.800346
 31
0.0
  0
LINE
  5
3ad
100
AcDbEntity
  8
logo
 62
7
100
AcDbLine
 10
22.092583
 20
3.800346
 30
0.0
 11
21.945268
 21
3.689861
 31
0.0
  0
LINE
  5
3ae
100
AcDbEntity
  8
logo
 62
7
100
AcDbLine
 10
21.945268
 20
3.689861
 30
0.0
 11
21.650637
 21
3.689861
 31
0.0
  0
LINE
  5
3af
100
AcDbEntity
  8
logo
 62
7
100
AcDbLine
 10
21.650637
 20
3.689861
 30
0.0
 11
21.503337
 21
3.800346
 31
0.0
  0
LINE
  5
3b0
100
AcDbEntity
  8
logo
 62
7
100
AcDbLine
 10
21.503337
 20
3.800346
 30
0.0
 11
21.356022
 21
4.021314
 31
0.0
  0
LINE
  5
3b1
100
AcDbEntity
  8
logo
 62
7
100
AcDbLine
 10
21.356022
 20
4.021314
 30
0.0
 11
21.282364
 21
4.463251
 31
0.0
  0
LINE
  5
3b2
100
AcDbEntity
  8
logo
 62
7
100
AcDbLine
 10
21.282364
 20
4.463251
 30
0.0
 11
21.282364
 21
5.236641
 31
0.0
  0
LINE
  5
3b3
100
AcDbEntity
  8
logo
 62
7
100
AcDbLine
 10
21.282364
 20
5.236641
 30
0.0
 11
21.356022
 21
5.678578
 31
0.0
  0
LINE
  5
3b4
100
AcDbEntity
  8
logo
 62
7
100
AcDbLine
 10
21.356022
 20
5.678578
 30
0.0
 11
21.503337
 21
5.899546
 31
0.0
  0
LINE
  5
3b5
100
AcDbEntity
  8
logo
 62
7
100
AcDbLine
 10
21.503337
 20
5.899546
 30
0.0
 11
21.650637
 21
6.010031
 31
0.0
  0
LINE
  5
3b6
100
AcDbEntity
  8
logo
 62
7
100
AcDbLine
 10
22.976460
 20
3.689861
 30
0.0
 11
22.976460
 21
6.010031
 31
0.0
  0
LINE
  5
3b7
100
AcDbEntity
  8
logo
 62
7
100
AcDbLine
 10
22.976460
 20
6.010031
 30
0.0
 11
23.565705
 21
6.010031
 31
0.0
  0
LINE
  5
3b8
100
AcDbEntity
  8
logo
 62
7
100
AcDbLine
 10
23.565705
 20
6.010031
 30
0.0
 11
23.713021
 21
5.899546
 31
0.0
  0
LINE
  5
3b9
100
AcDbEntity
  8
logo
 62
7
100
AcDbLine
 10
23.713021
 20
5.899546
 30
0.0
 11
23.786678
 21
5.789063
 31
0.0
  0
LINE
  5
3ba
100
AcDbEntity
  8
logo
 62
7
100
AcDbLine
 10
23.786678
 20
5.789063
 30
0.0
 11
23.860321
 21
5.568094
 31
0.0
  0
LINE
  5
3bb
100
AcDbEntity
  8
logo
 62
7
100
AcDbLine
 10
23.860321
 20
5.568094
 30
0.0
 11
23.860321
 21
5.236641
 31
0.0
  0
LINE
  5
3bc
100
AcDbEntity
  8
logo
 62
7
100
AcDbLine
 10
23.860321
 20
5.236641
 30
0.0
 11
23.786678
 21
5.015673
 31
0.0
  0
LINE
  5
3bd
100
AcDbEntity
  8
logo
 62
7
100
AcDbLine
 10
23.786678
 20
5.015673
 30
0.0
 11
23.713021
 21
4.905188
 31
0.0
  0
LINE
  5
3be
100
AcDbEntity
  8
logo
 62
7
100
AcDbLine
 10
23.713021
 20
4.905188
 30
0.0
 11
23.565705
 21
4.794704
 31
0.0
  0
LINE
  5
3bf
100
AcDbEntity
  8
logo
 62
7
100
AcDbLine
 10
23.565705
 20
4.794704
 30
0.0
 11
22.976460
 21
4.794704
 31
0.0
  0
LINE
  5
3c0
100
AcDbEntity
  8
logo
 62
7
100
AcDbLine
 10
15.861612
 20
9.174373
 30
0.0
 11
16.378298
 21
9.506889
 31
0.0
  0
LINE
  5
3c1
100
AcDbEntity
  8
logo
 62
7
100
AcDbLine
 10
15.448003
 20
4.195941
 30
0.0
 11
15.411437
 21
4.713528
 31
0.0
  0
LINE
  5
3c2
100
AcDbEntity
  8
logo
 62
7
100
AcDbLine
 10
15.407477
 20
3.076532
 30
0.0
 11
15.703964
 21
3.714148
 31
0.0
  0
LINE
  5
3c3
100
AcDbEntity
  8
logo
 62
7
100
AcDbLine
 10
25.115826
 20
4.043377
 30
0.0
 11
24.783300
 21
3.526697
 31
0.0
  0
LINE
  5
3c4
100
AcDbEntity
  8
logo
 62
7
100
AcDbLine
 10
15.411437
 20
7.987543
 30
0.0
 11
15.529101
 21
8.657693
 31
0.0
  0
LINE
  5
3c5
100
AcDbEntity
  8
logo
 62
7
100
AcDbLine
 10
24.783300
 20
9.174373
 30
0.0
 11
25.115826
 21
8.657693
 31
0.0
  0
LINE
  5
3c6
100
AcDbEntity
  8
logo
 62
7
100
AcDbLine
 10
24.266629
 20
9.506892
 30
0.0
 11
24.783300
 21
9.174373
 31
0.0
  0
LINE
  5
3c7
100
AcDbEntity
  8
logo
 62
7
100
AcDbLine
 10
25.233490
 20
7.987546
 30
0.0
 11
25.233475
 21
4.713528
 31
0.0
  0
LINE
  5
3c8
100
AcDbEntity
  8
logo
 62
7
100
AcDbLine
 10
15.529101
 20
8.657693
 30
0.0
 11
15.861612
 21
9.174373
 31
0.0
  0
LINE
  5
3c9
100
AcDbEntity
  8
logo
 62
7
100
AcDbLine
 10
16.536951
 20
3.111368
 30
0.0
 11
16.068911
 21
3.355316
 31
0.0
  0
LINE
  5
3ca
100
AcDbEntity
  8
logo
 62
7
100
AcDbLine
 10
16.068911
 20
3.355316
 30
0.0
 11
15.407477
 21
3.076532
 31
0.0
  0
LINE
  5
3cb
100
AcDbEntity
  8
logo
 62
7
100
AcDbLine
 10
17.048441
 20
9.624549
 30
0.0
 11
23.596471
 21
9.624554
 31
0.0
  0
LINE
  5
3cc
100
AcDbEntity
  8
logo
 62
7
100
AcDbLine
 10
23.596471
 20
9.624554
 30
0.0
 11
24.266629
 21
9.506892
 31
0.0
  0
LINE
  5
3cd
100
AcDbEntity
  8
logo
 62
7
100
AcDbLine
 10
24.266629
 20
3.194180
 30
0.0
 11
23.596471
 21
3.076519
 31
0.0
  0
LINE
  5
3ce
100
AcDbEntity
  8
logo
 62
7
100
AcDbLine
 10
25.233475
 20
4.713528
 30
0.0
 11
25.115826
 21
4.043377
 31
0.0
  0
LINE
  5
3cf
100
AcDbEntity
  8
logo
 62
7
100
AcDbLine
 10
23.596471
 20
3.076519
 30
0.0
 11
17.048441
 21
3.076519
 31
0.0
  0
LINE
  5
3d0
100
AcDbEntity
  8
logo
 62
7
100
AcDbLine
 10
17.048441
 20
3.076519
 30
0.0
 11
16.536951
 21
3.111368
 31
0.0
  0
LINE
  5
3d1
100
AcDbEntity
  8
logo
 62
7
100
AcDbLine
 10
24.783300
 20
3.526697
 30
0.0
 11
24.266629
 21
3.194180
 31
0.0
  0
LINE
  5
3d2
100
AcDbEntity
  8
logo
 62
7
100
AcDbLine
 10
15.703964
 20
3.714148
 30
0.0
 11
15.448003
 21
4.195941
 31
0.0
  0
LINE
  5
3d3
100
AcDbEntity
  8
logo
 62
7
100
AcDbLine
 10
16.378298
 20
9.506889
 30
0.0
 11
17.048441
 21
9.624549
 31
0.0
  0
LINE
  5
3d4
100
AcDbEntity
  8
logo
 62
7
100
AcDbLine
 10
25.115826
 20
8.657693
 30
0.0
 11
25.233490
 21
7.987546
 31
0.0
  0
LINE
  5
3d5
100
AcDbEntity
  8
logo
 62
7
100
AcDbLine
 10
15.411437
 20
4.713528
 30
0.0
 11
15.411437
 21
7.987543
 31
0.0
  0
ENDSEC
  0
SECTION
  2
OBJECTS
  0
DICTIONARY
  5
C
330
0
100
AcDbDictionary
  3
ACAD_GROUP
350
D
  3
ACAD_MLINESTYLE
350
17
  0
DICTIONARY
  5
D
330
C
100
AcDbDictionary
  0
DICTIONARY
  5
1A
330
C
100
AcDbDictionary
  0
DICTIONARY
  5
17
330
C
100
AcDbDictionary
  3
STANDARD
350
18
  0
DICTIONARY
  5
19
330
C
100
AcDbDictionary
  0
ENDSEC
  0
EOF
